<svg version="1.1" xmlns="http://www.w3.org/2000/svg" style="display: block;" viewBox="0 0 2048 2048" width="1024" height="1024" preserveAspectRatio="none">
<defs>
	<linearGradient id="Gradient1" gradientUnits="userSpaceOnUse" x1="1387.78" y1="1029.74" x2="1447.87" y2="1316.26">
		<stop class="stop0" offset="0" stop-opacity="1" stop-color="rgb(0,144,187)"/>
		<stop class="stop1" offset="1" stop-opacity="1" stop-color="rgb(30,108,245)"/>
	</linearGradient>
	<linearGradient id="Gradient2" gradientUnits="userSpaceOnUse" x1="1949.41" y1="1168.86" x2="1926.23" y2="1010.61">
		<stop class="stop0" offset="0" stop-opacity="1" stop-color="rgb(2,147,183)"/>
		<stop class="stop1" offset="1" stop-opacity="1" stop-color="rgb(1,138,203)"/>
	</linearGradient>
</defs>
<path transform="translate(0,0)" fill="rgb(253,248,239)" d="M 0 0 L 1230.53 0 L 2048 0 L 2048 966.34 L 2048 1044.72 L 2048 1112.65 L 2048 1157.96 L 2048 1343.79 L 2048 1394.5 L 2048 1497.55 L 2048 2048 L 558.154 2048 L 162.332 2048 L 0 2048 L 0 1806.67 L 0 1390.37 L 0 1074.99 L 0 992.555 L 0 910.681 L 0 654.426 L 0 0 z"/>
<path transform="translate(0,0)" fill="rgb(89,213,170)" d="M 0 0 L 1230.53 0 L 2048 0 L 2048 966.34 L 2048 1044.72 L 2048 1112.65 L 2048 1157.96 L 1924.71 1157.92 C 1902.72 1157.9 1874.64 1157.15 1852.94 1158.41 C 1852.3 1156.07 1852.8 1154.48 1853.09 1151.93 C 1859.76 1149.12 1859.24 1144.96 1859.62 1138.24 C 1859.74 1132.58 1860.05 1126.8 1859.95 1121.14 C 1859.6 1101.4 1860.8 1100.33 1841.6 1100.25 C 1809.2 1101.34 1773.16 1100.4 1740.47 1100.34 L 1580.96 1100.1 C 1578.65 1100.32 1575.02 1100.56 1572.83 1100.91 L 1569.57 1101.25 C 1566.64 1104.96 1567.17 1107.97 1567.02 1113.02 L 1523.08 1112.94 C 1480.04 1111.73 1433.73 1112.99 1390.31 1112.84 C 1375.8 1113.06 1361.28 1113.04 1346.77 1112.78 C 1342.92 1112.72 1339.3 1113.04 1335.85 1111.43 C 1324.61 1112.7 1303.73 1112.63 1291.81 1112.93 C 1291.86 1106.36 1291.64 1101.08 1291.23 1094.51 C 1291.05 1082.85 1288.12 1073.3 1289.94 1061.71 L 1290.06 1035.89 C 1289.9 1025.22 1289.38 1007.67 1290.4 997.496 C 1297.8 994.17 1298.66 992.741 1301.96 985.107 C 1301.15 978.17 1294.03 972.612 1288.85 967.249 C 1286.23 965.575 1270.22 946.841 1266.67 943.005 C 1260.14 936.236 1253.92 929.181 1248.02 921.861 C 1239.11 912.929 1229.14 902.617 1220.95 893.035 C 1221.47 869.334 1221.4 836.494 1220.58 813.025 C 1180.18 749.569 1151.03 718.12 1095.97 668.978 C 1083.57 672.03 1077.59 668.115 1078.15 655.012 C 987.796 588.987 896.529 549.568 783.538 541.006 C 740.944 537.779 695.596 539.243 652.611 539.23 L 425.423 539.168 L 329.111 539.178 C 319.403 539.176 291.831 539.769 283.846 538.305 C 275.408 541.235 253.548 552.923 244.675 557.357 C 225.266 567.067 205.64 576.336 185.812 585.158 C 121.075 614.336 67.3342 633.21 0 654.426 L 0 0 z"/>
<path transform="translate(0,0)" fill="rgb(20,103,225)" d="M 0 0 L 1230.53 0 C 1214.37 12.3378 1200.12 28.9066 1186.32 43.9372 C 1173.42 58.0537 1160.32 71.9766 1147.01 85.7011 C 1131.98 101.351 1116.77 116.832 1101.39 132.142 C 1094.66 138.846 1081.14 151.469 1075.4 158.149 C 1024.85 168.322 994.197 187.901 965.611 230.953 L 963.862 233.594 C 948.641 228.901 933.725 225.594 917.752 227.458 C 872.1 232.785 841.131 262.887 833.636 307.444 C 815.167 313.283 805.646 317.684 790.662 330.49 C 782.308 332.548 774.232 335.768 766 338.225 C 697.876 358.558 629.907 374.084 563.55 400.332 C 499.085 425.831 438.763 457.571 377.294 489.422 L 317.342 520.687 C 307.958 525.539 292.016 533.03 283.846 538.305 C 275.408 541.235 253.548 552.923 244.675 557.357 C 225.266 567.067 205.64 576.336 185.812 585.158 C 121.075 614.336 67.3342 633.21 0 654.426 L 0 0 z"/>
<path transform="translate(0,0)" fill="rgb(229,228,228)" d="M 102.149 59.3335 C 148.117 52.69 162.583 93.4922 194.174 99.5359 C 238.592 108.034 245.374 60.0324 297.015 58.9259 C 350.08 57.7888 353.697 100.233 393.493 100.06 C 435.669 99.8768 437.004 57.8719 491.877 59.0509 C 542.35 60.1353 550.28 108.862 592.532 99.1671 C 631.392 90.2508 634.669 53.3343 689.857 59.654 C 733.152 64.6118 738.357 103.133 777.918 100.176 C 814.946 97.4078 826.203 56.097 872.462 58.6886 C 897.368 59.1018 915.685 73.1043 932.113 90.3777 C 936.369 94.8524 935.393 103.278 930.721 104.782 C 916.283 109.431 903.815 86.9401 890.514 82.1146 C 883.85 79.6972 882.117 79.2798 875.398 78.2519 C 831.841 74.6524 826.438 120.973 773.854 119.951 C 723.344 118.968 721.184 80.2176 681.526 78.4799 C 640.039 76.662 634.488 120.295 583.259 119.912 C 534.546 119.548 531.276 81.6758 493.518 78.7448 C 449.914 75.3602 446.389 119.287 394.871 119.867 C 343.668 120.443 339.953 78.1421 298.969 78.567 C 256.78 79.0043 249.186 126.871 193.162 119.393 C 151.802 113.873 149.067 81.9072 111.847 78.253 C 92.4494 76.6678 79.2356 87.3889 66.4995 100.031 C 59.197 107.279 51.5575 109.145 45.7818 99.5569 C 45.4155 97.2023 45.0987 94.3472 46.7456 92.4252 C 63.0769 73.3668 78.0474 62.8267 102.149 59.3335 z"/>
<path transform="translate(0,0)" fill="rgb(229,228,228)" d="M 101.923 171.375 C 129.545 167.883 148.945 181.862 168.278 199.283 C 184.578 214.074 214.347 216.217 232.022 202.685 C 252.104 187.309 262.331 173.952 289.633 171.199 C 319.143 168.223 337.338 180.009 358.468 199.211 C 375.1 214.324 403.601 215.963 422.099 202.983 C 442.116 188.014 451.335 174.162 478.994 171.332 C 509.564 168.204 526.02 178.972 547.932 198.706 C 556.873 206.217 567.06 210.81 578.521 211.875 C 601.018 214.323 615.399 200.551 631.198 187.498 C 658.033 165.541 698.218 164.326 724.375 188.089 C 731.137 194.232 751.67 210.036 742.468 220.239 C 728.339 223.63 718 206.553 707.605 199.539 C 699.902 194.342 694.98 192.868 686.234 191.16 C 648.298 187.416 642.171 211.929 612.783 225.351 C 589.887 235.808 559.427 233.18 539.48 217.365 C 529.033 209.083 518.329 197.602 505.785 193.579 C 464.797 180.432 452.822 210.958 422.519 225.256 C 401.108 235.425 369.228 233.329 350.492 218.166 C 331.538 202.826 317.689 186.548 289.822 190.796 C 267.201 194.244 255.178 214.451 235.549 223.74 C 214.766 234.651 178.118 234.204 159.589 217.766 C 132.979 194.16 107.336 175.761 73.8898 205.149 C 67.3848 210.864 58.1182 223.133 47.8293 218.971 C 38.6405 209.281 53.2968 196.508 59.7062 190.723 C 73.142 178.595 84.2613 173.64 101.923 171.375 z"/>
<path transform="translate(0,0)" fill="rgb(229,228,228)" d="M 106.95 284.42 C 156.852 282.621 160.997 323.602 201.987 325.204 C 238.521 326.632 246.194 291.75 285.597 285.571 C 342.857 276.593 346.171 318.111 388.769 325.294 C 425.608 331.507 442.256 284.35 485.61 284.387 C 510.894 282.824 529.916 295.226 547.385 312.15 C 550.198 314.876 561.618 327.804 554.087 331.939 C 540.32 339.5 525.897 317.7 515.475 311.609 C 508.064 307.278 503.924 305.807 495.232 304.196 C 449.816 299.695 447.798 344.026 395.024 345.064 C 343.213 346.083 339.632 304.049 299.373 303.961 C 256.952 303.868 249.086 352.928 191.008 344.224 C 155.093 340.186 148.521 307.848 111.799 303.632 C 83.0694 300.334 65.9526 333.913 50.7972 332.792 C 44.5251 329.192 42.372 323.323 47.4824 317.578 C 65.5846 297.228 79.7466 287.191 106.95 284.42 z"/>
<path transform="translate(0,0)" fill="rgb(229,228,228)" d="M 108.514 397.437 C 156.327 395.264 161.974 438.857 203.59 438.383 C 243.295 437.931 250.18 396.956 296.523 397.458 C 326.356 397.781 335.704 405.441 357.856 426.317 C 360.862 429.149 364.995 433.669 364.524 438.013 C 364.241 440.636 362.852 443.015 360.707 444.551 C 350.169 452.007 335.826 429.573 325.837 424.232 C 316.107 419.029 315.558 419.026 304.813 416.981 C 265.589 415.673 263.662 437.893 233.054 451.969 C 212.872 461.188 177.998 459.776 160.461 444.468 C 138.737 425.504 117.533 406.18 86.3124 422.67 C 82.9985 424.777 71.1894 433.463 69.0139 436.526 C 57.7222 452.425 35.4678 443.196 49.3441 427.765 C 67.145 407.971 81.7445 399.246 108.514 397.437 z"/>
<path transform="translate(0,0)" fill="rgb(253,248,239)" d="M 1075.4 158.149 C 1122.37 154.559 1159.22 162.494 1196.6 193.417 C 1218.52 211.543 1229.69 231.642 1241.73 256.917 C 1276.83 252.99 1308.36 258.111 1336.57 280.847 C 1359.49 299.284 1374.11 326.101 1377.18 355.353 C 1380.15 384.794 1371.27 414.205 1352.51 437.083 C 1340.23 451.897 1316.51 469.38 1297.24 470.17 C 1272.14 471.2 1244.14 470.796 1218.86 470.719 L 1072.79 470.552 L 918.997 470.63 C 904.489 470.634 889.536 470.424 875.101 470.668 C 845.045 471.176 820.653 470.962 796.453 450.44 C 779.607 436.067 769.163 415.589 767.42 393.513 C 765.85 372.145 772.802 351.024 786.756 334.766 C 788.029 333.315 789.332 331.889 790.662 330.49 C 805.646 317.684 815.167 313.283 833.636 307.444 C 841.131 262.887 872.1 232.785 917.752 227.458 C 933.725 225.594 948.641 228.901 963.862 233.594 L 965.611 230.953 C 994.197 187.901 1024.85 168.322 1075.4 158.149 z"/>
<path transform="translate(0,0)" fill="rgb(20,103,225)" d="M 1071.98 247.412 C 1121.65 240.385 1178.45 263.828 1216.14 295.721 C 1231.58 308.794 1225.67 320.545 1205.7 322.937 C 1202.32 323.342 1188.77 310.119 1184.66 307.212 C 1161.66 290.939 1131.52 278.19 1103.18 276.218 L 1102.24 276.162 C 1065.85 271.449 1023.75 283.984 993.56 304.416 C 986.019 309.031 977.394 318.889 969.68 322.451 C 958.949 327.157 941.382 312.167 951.961 301.872 C 984.765 269.948 1027.21 251.515 1071.98 247.412 z"/>
<path transform="translate(0,0)" fill="rgb(20,103,225)" d="M 1076.89 299.402 C 1110.73 293.572 1157.74 313.344 1182.32 335.589 C 1185.69 338.635 1187.22 340.315 1187.42 345.005 C 1185.99 349.881 1181.94 353.039 1178.18 356.242 C 1167.05 365.743 1155.55 349.656 1145.61 344.038 C 1128.94 334.619 1116.85 331.019 1098.23 328.165 C 1073.01 326.002 1044.48 333.043 1023.05 347.45 C 1010.78 355.692 1000.98 369.439 987.542 348.002 C 981.984 339.134 996.101 331.559 1002.58 326.859 C 1024.93 310.649 1049.5 302.213 1076.89 299.402 z"/>
<path transform="translate(0,0)" fill="rgb(20,103,225)" d="M 1080.25 351.347 C 1101.9 349.229 1127.76 358.03 1144.4 371.647 C 1153.05 379.225 1149.82 387.033 1141.6 393.139 C 1130.27 401.564 1120.22 388.759 1109.98 384.563 C 1105.44 382.704 1100.87 381.828 1096.08 380.878 C 1074.3 378.596 1065.39 385.247 1046.64 394.023 C 1036.25 398.885 1027.8 390.909 1024.75 380.456 C 1026.72 364.201 1066 353.194 1080.25 351.347 z"/>
<path transform="translate(0,0)" fill="rgb(20,103,225)" d="M 1083.55 400.86 C 1094.08 398.664 1104.42 405.291 1106.83 415.769 C 1109.24 426.247 1102.82 436.727 1092.4 439.346 C 1085.46 441.089 1078.13 438.946 1073.22 433.745 C 1068.31 428.543 1066.6 421.096 1068.74 414.274 C 1070.89 407.452 1076.55 402.321 1083.55 400.86 z"/>
<path transform="translate(0,0)" fill="rgb(153,234,187)" d="M 1347.65 613.825 C 1347.8 619.001 1346.88 619.075 1349.48 622.077 C 1354.95 624.421 1361.76 622.794 1368.62 623.193 C 1394.88 639.832 1430.12 665.019 1455.69 683.745 C 1455.96 704.775 1455.36 729.851 1456.49 750.449 C 1434.51 765.449 1411.85 779.602 1389.97 794.677 L 1390.1 1003.87 C 1390.1 1039.25 1389.27 1077.69 1390.31 1112.84 C 1375.8 1113.06 1361.28 1113.04 1346.77 1112.78 C 1342.92 1112.72 1339.3 1113.04 1335.85 1111.43 C 1324.61 1112.7 1303.73 1112.63 1291.81 1112.93 C 1291.86 1106.36 1291.64 1101.08 1291.23 1094.51 C 1291.05 1082.85 1288.12 1073.3 1289.94 1061.71 L 1290.06 1035.89 C 1289.9 1025.22 1289.38 1007.67 1290.4 997.496 C 1297.8 994.17 1298.66 992.741 1301.96 985.107 C 1301.15 978.17 1294.03 972.612 1288.85 967.249 C 1286.23 965.575 1270.22 946.841 1266.67 943.005 C 1260.14 936.236 1253.92 929.181 1248.02 921.861 C 1239.11 912.929 1229.14 902.617 1220.95 893.035 C 1221.47 869.334 1221.4 836.494 1220.58 813.025 C 1221.77 806.331 1221.33 763.821 1221.32 754.71 C 1221.1 710.857 1221.1 667.004 1221.32 623.151 L 1289.04 623.109 L 1347.04 623.057 L 1347.65 613.825 z"/>
<path transform="translate(0,0)" fill="rgb(4,151,157)" d="M 1347.65 613.825 C 1347.8 619.001 1346.88 619.075 1349.48 622.077 C 1354.95 624.421 1361.76 622.794 1368.62 623.193 C 1394.88 639.832 1430.12 665.019 1455.69 683.745 C 1455.96 704.775 1455.36 729.851 1456.49 750.449 C 1434.51 765.449 1411.85 779.602 1389.97 794.677 L 1390.1 1003.87 C 1390.1 1039.25 1389.27 1077.69 1390.31 1112.84 C 1375.8 1113.06 1361.28 1113.04 1346.77 1112.78 L 1347.04 623.057 L 1347.65 613.825 z"/>
<path transform="translate(0,0)" fill="rgb(4,151,157)" d="M 1289.94 1061.71 C 1301.3 1073.24 1325.97 1098.56 1335.85 1111.43 C 1324.61 1112.7 1303.73 1112.63 1291.81 1112.93 C 1291.86 1106.36 1291.64 1101.08 1291.23 1094.51 C 1291.05 1082.85 1288.12 1073.3 1289.94 1061.71 z"/>
<path transform="translate(0,0)" fill="rgb(89,213,170)" d="M 1288.85 967.249 C 1293.93 963.537 1303.53 964.948 1310 965.279 C 1309.95 983.862 1310.81 1016.66 1309.34 1034.15 C 1302.92 1034.79 1296.49 1035.37 1290.06 1035.89 C 1289.9 1025.22 1289.38 1007.67 1290.4 997.496 C 1297.8 994.17 1298.66 992.741 1301.96 985.107 C 1301.15 978.17 1294.03 972.612 1288.85 967.249 z"/>
<path transform="translate(0,0)" fill="rgb(89,213,170)" d="M 1248.31 875.217 C 1254.82 875.131 1261.35 874.934 1267.84 875.265 C 1268.01 886.693 1269.33 935.745 1266.67 943.005 C 1260.14 936.236 1253.92 929.181 1248.02 921.861 C 1248.02 908.027 1247.43 888.603 1248.31 875.217 z"/>
<path transform="translate(0,0)" fill="rgb(89,213,170)" d="M 1250.53 695.398 C 1257.06 695.137 1261.38 695.261 1267.9 695.616 C 1268.08 704.88 1268.67 757.008 1267.15 763.262 L 1264.76 764.371 C 1258.73 764.87 1254.38 764.652 1248.35 764.434 C 1248.29 763.577 1248.14 761.989 1248.16 760.524 C 1248.42 739.732 1246.99 718.037 1248.63 697.405 C 1249.27 696.736 1249.9 696.067 1250.53 695.398 z"/>
<path transform="translate(0,0)" fill="rgb(89,213,170)" d="M 1300.37 695.428 C 1303.82 695.32 1307.06 695.012 1309.6 696.98 C 1310.53 710.362 1310.61 750.07 1309.59 763.318 C 1307.12 765.069 1304.36 764.783 1301.21 764.954 L 1290.12 763.852 C 1289.97 754.487 1289.39 703.617 1290.62 697.388 C 1293.23 695.215 1296.8 695.585 1300.37 695.428 z"/>
<path transform="translate(0,0)" fill="rgb(89,213,170)" d="M 1290.18 875.123 C 1296.69 875.115 1303.34 875.282 1309.86 875.375 C 1310 893.07 1311.15 927.05 1309.58 943.42 C 1304.52 944.024 1295.93 943.757 1290.52 943.735 C 1289.18 925.75 1290.07 894.04 1290.18 875.123 z"/>
<path transform="translate(0,0)" fill="rgb(89,213,170)" d="M 1290.17 786.107 C 1296.52 785.921 1303.48 786.07 1309.88 786.081 C 1310.19 808.695 1310.15 831.313 1309.78 853.927 C 1303.45 854.195 1296.75 853.955 1290.38 853.844 C 1289.08 836.358 1289.98 804.05 1290.17 786.107 z"/>
<path transform="translate(0,0)" fill="rgb(89,213,170)" d="M 1248.16 786.057 C 1254.59 785.898 1261.33 785.987 1267.79 785.975 C 1268.26 802.072 1268.79 839.324 1267.38 853.69 C 1261.05 854.334 1254.52 854.033 1248.14 853.918 C 1247.85 831.299 1247.86 808.676 1248.16 786.057 z"/>
<path transform="translate(0,0)" fill="rgb(248,123,144)" d="M 1456.49 750.449 C 1465.8 743.947 1516.11 709.225 1523.61 708.994 L 1523.21 855.171 C 1523.21 866.028 1522.41 910.978 1523.57 919.828 C 1523.8 960.433 1523.82 1001.04 1523.64 1041.65 C 1523.6 1062.42 1524.41 1092.65 1523.08 1112.94 C 1480.04 1111.73 1433.73 1112.99 1390.31 1112.84 C 1389.27 1077.69 1390.1 1039.25 1390.1 1003.87 L 1389.97 794.677 C 1411.85 779.602 1434.51 765.449 1456.49 750.449 z"/>
<path transform="translate(0,0)" fill="rgb(229,77,96)" d="M 1424.09 822.933 C 1431.31 822.724 1439.35 823.004 1446.64 823.11 C 1446.88 830.907 1447.9 852.881 1445.8 859.122 C 1437.12 859.905 1432.31 859.804 1423.64 859.339 C 1423.15 848.58 1422.31 833.158 1424.09 822.933 z"/>
<path transform="translate(0,0)" fill="rgb(229,77,96)" d="M 1468.69 938.235 C 1474.94 937.969 1484.27 936.965 1489.78 939.411 C 1491.92 943.9 1491.92 970.424 1488.87 974.227 C 1480.84 974.802 1475.68 974.713 1467.6 974.409 C 1467.32 967.354 1465.49 942.83 1468.69 938.235 z"/>
<path transform="translate(0,0)" fill="rgb(229,77,96)" d="M 1468.29 823.027 C 1475.72 822.919 1483.39 823.103 1490.84 823.189 C 1490.92 828.98 1491.74 855.446 1489.74 858.99 C 1482.09 859.338 1475.17 859.574 1467.52 859.534 C 1466.97 850.929 1466.33 830.295 1468.29 823.027 z"/>
<path transform="translate(0,0)" fill="rgb(229,77,96)" d="M 1423.83 938.042 C 1431.31 937.76 1438.9 938.023 1446.39 938.187 C 1446.95 947.54 1447.59 965.525 1445.84 973.903 C 1437.04 974.62 1432.29 974.739 1423.51 974.311 C 1422.93 966.565 1422.64 945.52 1423.83 938.042 z"/>
<path transform="translate(0,0)" fill="rgb(229,77,96)" d="M 1467.94 881.128 C 1475.41 880.86 1483.24 881.06 1490.74 881.138 C 1491.27 891.552 1490.98 906.77 1490.26 917.052 C 1482.16 917.308 1475.64 917.239 1467.54 916.933 C 1466.97 908.788 1466.31 888.471 1467.94 881.128 z"/>
<path transform="translate(0,0)" fill="rgb(229,77,96)" d="M 1470.67 995.345 C 1478.38 995.129 1482.89 995.194 1490.57 995.816 C 1490.89 1005.97 1491.44 1017.48 1490.68 1027.59 C 1490.45 1030.57 1489.88 1030.23 1487.6 1031.89 C 1480.85 1032.04 1474.74 1031.81 1467.99 1031.54 C 1466.89 1023.48 1466.38 1006.93 1467.63 998.708 C 1467.96 996.53 1469.05 996.338 1470.67 995.345 z"/>
<path transform="translate(0,0)" fill="rgb(229,77,96)" d="M 1424.01 881.041 C 1431.34 880.856 1439.23 881.056 1446.6 881.112 C 1447.01 891.946 1447.12 906.229 1446.1 916.912 C 1437.69 917.473 1432.21 917.415 1423.75 917.101 C 1423.08 908.309 1422.31 889.344 1424.01 881.041 z"/>
<path transform="translate(0,0)" fill="rgb(229,77,96)" d="M 1425.2 995.474 C 1433.25 995.212 1438.27 995.339 1446.32 995.89 C 1446.71 1002.19 1448.23 1026.88 1444.76 1031.37 C 1436.7 1032.02 1431.72 1031.88 1423.73 1031.31 C 1422.86 1024.53 1421.36 1000.3 1425.2 995.474 z"/>
<path transform="translate(0,0)" fill="url(#Gradient2)" d="M 1921.17 1026.71 C 1925.58 1025.4 1942.45 1022.93 1948.91 1021.43 L 1947.1 1027.62 C 1996.13 1023.78 2004.8 1023.12 2048 1044.72 L 2048 1112.65 L 2048 1157.96 L 1924.71 1157.92 C 1902.72 1157.9 1874.64 1157.15 1852.94 1158.41 C 1852.3 1156.07 1852.8 1154.48 1853.09 1151.93 C 1859.76 1149.12 1859.24 1144.96 1859.62 1138.24 C 1859.74 1132.58 1860.05 1126.8 1859.95 1121.14 C 1859.6 1101.4 1860.8 1100.33 1841.6 1100.25 C 1842.02 1092.07 1840.2 1079.2 1843.18 1072.01 C 1829.12 1061.18 1832.25 1043.02 1821.48 1026.76 L 1820.67 1026.56 C 1837.34 1017.82 1860.78 1025.75 1876.3 1033.8 C 1882.81 1030.94 1889.78 1029.24 1896.88 1028.76 L 1897.11 1028.03 C 1903.62 1028 1914.65 1027.43 1920.92 1026.22 L 1921.17 1026.71 z"/>
<path transform="translate(0,0)" fill="rgb(20,103,225)" d="M 1947.1 1027.62 C 1996.13 1023.78 2004.8 1023.12 2048 1044.72 L 2048 1112.65 C 2027 1114.24 1966.31 1118.78 1949.54 1109.17 C 1941.68 1104.72 1935.99 1097.23 1933.83 1088.46 C 1928.08 1066.14 1936.12 1046.18 1947.1 1027.62 z"/>
<path transform="translate(0,0)" fill="rgb(96,218,205)" d="M 1920.92 1026.22 L 1921.17 1026.71 C 1920.59 1052.7 1921.27 1078.68 1920.88 1104.58 C 1885.55 1133.63 1898.05 1046.82 1896.88 1028.76 L 1897.11 1028.03 C 1903.62 1028 1914.65 1027.43 1920.92 1026.22 z"/>
<path transform="translate(0,0)" fill="rgb(20,103,225)" d="M 1821.48 1026.76 C 1829.23 1030.64 1853.54 1054.49 1848.4 1065.78 C 1847.71 1067.32 1844.53 1070.83 1843.18 1072.01 C 1829.12 1061.18 1832.25 1043.02 1821.48 1026.76 z"/>
<path transform="translate(0,0)" fill="rgb(22,112,233)" d="M 1669.5 976.32 C 1669.65 979.87 1669.02 980.643 1670.79 982.881 C 1680.06 982.045 1689.06 979.239 1697.58 978.207 C 1706.88 977.08 1723.75 978.024 1733.14 978.885 C 1741.83 980.372 1748.44 981.851 1757 984.024 C 1783.39 992.835 1802.18 1006.15 1820.67 1026.56 L 1821.48 1026.76 C 1832.25 1043.02 1829.12 1061.18 1843.18 1072.01 C 1840.2 1079.2 1842.02 1092.07 1841.6 1100.25 C 1809.2 1101.34 1773.16 1100.4 1740.47 1100.34 L 1580.96 1100.1 C 1581.4 1068.62 1587.69 1035.06 1612.87 1013.5 C 1626.89 1001.51 1648.96 989.546 1666.6 984.348 L 1668.11 983.909 C 1670.07 981.711 1669.36 980.163 1669.5 976.32 z"/>
<path transform="translate(0,0)" fill="rgb(113,173,246)" d="M 1683.57 1014.15 C 1688.91 1013.72 1693.82 1013.65 1696.39 1018.93 C 1696.24 1028.85 1680.68 1035.45 1675.15 1041.72 C 1670.64 1046.84 1666.82 1052.01 1662.13 1057.22 C 1647.79 1059.23 1647.35 1050.31 1652.99 1039.73 C 1659.43 1027.52 1670.41 1018.33 1683.57 1014.15 z"/>
<path transform="translate(0,0)" fill="rgb(84,150,245)" d="M 1649.4 1065.49 C 1651.92 1063.85 1655.29 1064.56 1656.93 1067.08 C 1658.57 1069.59 1657.86 1072.96 1655.35 1074.61 C 1652.83 1076.25 1649.45 1075.54 1647.81 1073.02 C 1646.17 1070.5 1646.88 1067.13 1649.4 1065.49 z"/>
<path transform="translate(0,0)" fill="rgb(0,51,118)" d="M 1523.57 919.828 L 1524.07 918.131 C 1528.25 916.338 1598.51 917.161 1608.71 917.167 C 1618.62 917.167 1661.1 914.9 1666.23 919.179 C 1670.68 922.886 1669.78 931.373 1669.66 936.628 C 1669.24 949.855 1669.19 963.09 1669.5 976.32 C 1669.36 980.163 1670.07 981.711 1668.11 983.909 L 1666.6 984.348 C 1648.96 989.546 1626.89 1001.51 1612.87 1013.5 C 1587.69 1035.06 1581.4 1068.62 1580.96 1100.1 C 1578.65 1100.32 1575.02 1100.56 1572.83 1100.91 L 1569.57 1101.25 C 1566.64 1104.96 1567.17 1107.97 1567.02 1113.02 L 1523.08 1112.94 C 1524.41 1092.65 1523.6 1062.42 1523.64 1041.65 C 1523.82 1001.04 1523.8 960.433 1523.57 919.828 z"/>
<path transform="translate(0,0)" fill="rgb(229,77,96)" d="M 1523.61 708.994 C 1539.99 723.049 1556.46 737.001 1573.01 750.849 C 1583.15 759.313 1600.52 773.146 1608.93 782.476 C 1608.41 827.076 1609.67 872.811 1608.71 917.167 C 1598.51 917.161 1528.25 916.338 1524.07 918.131 L 1523.57 919.828 C 1522.41 910.978 1523.21 866.028 1523.21 855.171 L 1523.61 708.994 z"/>
<path transform="translate(0,0)" fill="rgb(253,248,239)" d="M 1910.44 819.155 C 1920.15 809.441 1959.8 755.34 1968 753.906 C 1970.42 753.482 1972.74 753.989 1974.79 755.335 C 1976.83 756.676 1978.44 759.6 1978.69 761.945 C 1979.31 767.601 1942.97 814.205 1936.74 822.955 C 1934.95 825.465 1932.59 829.312 1932.69 832.517 C 1932.91 839.594 1972.67 896.146 1974.93 913.838 C 1975.33 916.965 1974.92 919.043 1972.92 921.571 C 1970.28 922.982 1967.31 923.369 1964.48 922.14 C 1957.74 919.207 1927.3 869.841 1922.81 861.301 C 1919.3 854.639 1916.76 847.545 1914.06 840.527 C 1913.96 848.912 1915.99 857.081 1916.54 865.389 C 1920.05 918.814 1919.61 972.669 1920.92 1026.22 C 1914.65 1027.43 1903.62 1028 1897.11 1028.03 C 1896.68 965.225 1900.93 902.319 1899.06 838.924 C 1885.33 839.899 1821.4 845.876 1817.79 831.446 C 1818.62 828.441 1820.28 824.743 1823.06 823.004 C 1829.43 819.023 1899.99 818.169 1910.44 819.155 z"/>
<path transform="translate(0,0)" fill="rgb(245,245,201)" d="M 1910.86 822.873 C 1924.68 822.455 1926.22 832.67 1918.3 841.18 C 1905.59 844.564 1905.33 831.215 1910.86 822.873 z"/>
<path transform="translate(0,0)" fill="rgb(253,248,239)" d="M 1741 814.375 C 1751.96 794.951 1762.91 775.307 1774.19 756.058 C 1777.61 750.234 1781.59 742.421 1788.98 742.043 C 1791.51 742.865 1793.38 743.832 1794.94 746.107 C 1802.88 757.67 1760.07 814.448 1761.87 825.26 C 1763.67 836.06 1815.61 896.316 1813.12 906.592 C 1812.48 909.237 1810.94 910.581 1808.88 912.156 C 1807.21 912.613 1805.92 912.94 1804.18 912.498 C 1794.21 909.973 1763.84 868.406 1755.96 857.753 C 1753.22 860.168 1753 860.03 1749.64 861.152 C 1752.51 873.235 1752.63 888.404 1753.45 900.869 C 1755.23 928.31 1754.99 956.662 1757 984.024 C 1748.44 981.851 1741.83 980.372 1733.14 978.885 C 1731.33 934.813 1733.73 882.712 1733.12 837.099 C 1713.89 841.594 1675.82 847.068 1654.94 846.822 C 1651.96 846.787 1649.51 843.707 1648.08 840.974 C 1647.86 836.012 1649.36 832.278 1654.74 830.857 C 1681.72 823.724 1713.25 821.804 1739.83 814.701 L 1741 814.375 z"/>
<path transform="translate(0,0)" fill="rgb(245,245,201)" d="M 1746.09 842.623 C 1741.57 835.776 1736.95 837.031 1736.31 826.572 C 1735.61 815.14 1750.35 816.397 1755.09 822.268 C 1760.34 828.77 1748.19 835.828 1746.99 842.42 L 1746.09 842.623 z"/>
<path transform="translate(0,0)" fill="rgb(96,218,205)" d="M 1746.09 842.623 L 1746.99 842.42 C 1750.52 847.266 1753.1 852.468 1755.96 857.753 C 1753.22 860.168 1753 860.03 1749.64 861.152 C 1747.48 853.893 1747.05 850.199 1746.09 842.623 z"/>
<path transform="translate(0,0)" fill="rgb(22,112,233)" d="M 2048 966.34 L 2048 1044.72 C 2004.8 1023.12 1996.13 1023.78 1947.1 1027.62 L 1948.91 1021.43 C 1958.85 1016.59 1973.9 1005.32 1983.32 998.847 C 2002.33 985.775 2025.84 973.172 2048 966.34 z"/>
<path transform="translate(0,0)" fill="rgb(20,103,225)" d="M 1289.04 566.641 L 1348.02 566.922 C 1348.11 582.557 1347.98 598.193 1347.65 613.825 L 1347.04 623.057 L 1289.04 623.109 C 1289.32 604.539 1289.05 585.269 1289.04 566.641 z"/>
<path transform="translate(0,0)" fill="rgb(20,103,225)" d="M 1078.15 655.012 C 1086.08 637.34 1107.08 651.196 1097.3 666.953 C 1096.87 667.637 1096.43 668.312 1095.97 668.978 C 1083.57 672.03 1077.59 668.115 1078.15 655.012 z"/>
<path transform="translate(0,0)" fill="rgb(0,51,118)" d="M 1470.21 425.508 C 1470.5 426.047 1471.44 428.013 1472.07 428.144 C 1484.56 430.743 1497.02 434.323 1507.75 441.446 C 1521.48 450.554 1530.73 466.757 1533.75 482.753 C 1535.71 493.231 1535.07 504.029 1531.89 514.202 C 1528.07 526.504 1479.04 608.216 1468.93 623.067 L 1467.18 623.369 C 1445.34 593.071 1425.23 555.642 1406.11 523.669 C 1386.67 491.167 1409.53 440.63 1446.04 432.17 C 1452.88 430.585 1464.15 428.664 1470.21 425.508 z"/>
<path transform="translate(0,0)" fill="rgb(253,248,239)" d="M 1463.9 461.23 C 1481.49 459.383 1497.31 472.013 1499.41 489.583 C 1501.5 507.152 1489.09 523.146 1471.56 525.487 C 1459.99 527.031 1448.49 522.228 1441.45 512.916 C 1434.42 503.605 1432.95 491.228 1437.59 480.524 C 1442.24 469.82 1452.29 462.448 1463.9 461.23 z"/>
<path transform="translate(0,0)" fill="rgb(20,103,225)" d="M 1804.01 529.023 C 1812.68 528.885 1843.68 527.401 1845.34 532.901 C 1850.79 550.901 1847.05 594.373 1847.97 615.102 C 1848.64 630.086 1847.72 637.324 1848.02 650.85 C 1848.25 661.197 1848.48 670.987 1847.64 679.561 C 1845.22 681.987 1844.65 681.213 1840.18 681.674 C 1825.87 682.172 1810.46 682.005 1796.07 682.104 C 1798.62 634.469 1794.33 584.623 1796.81 536.852 C 1797.01 532.949 1801.08 531.027 1804.01 529.023 z"/>
<path transform="translate(0,0)" fill="rgb(253,248,239)" d="M 1865.22 528.072 C 1872.58 527.278 1898.87 526.025 1904.77 529.251 C 1906.93 530.436 1907.49 531.723 1908.36 533.976 C 1909.57 537.144 1909.88 540.643 1910.07 544.005 C 1910.69 555.003 1910.79 676.926 1908.88 680.26 C 1908.12 681.579 1905.99 681.316 1904.6 681.512 C 1889.74 681.817 1874.88 681.766 1860.03 681.358 L 1859.47 581.238 C 1859.36 566.414 1858.96 549.601 1859.55 534.674 C 1859.65 531.974 1862.98 529.815 1865.22 528.072 z"/>
<path transform="translate(0,0)" fill="rgb(20,103,225)" d="M 1755.19 454.335 L 1756.54 454.682 C 1757.76 458.215 1748.05 529.069 1746.87 536.504 C 1738.29 529.156 1728.95 519.033 1721.31 510.667 C 1715.92 516.649 1709.72 522.938 1703.78 528.371 C 1673.43 556.113 1644.36 589.733 1612.89 615.811 L 1605.11 608.721 C 1601.68 605.424 1597.87 601.073 1594.59 597.528 L 1700.82 492.536 L 1674.83 470.156 C 1701.72 464.987 1728.21 459.276 1755.19 454.335 z"/>
<path transform="translate(0,0)" fill="rgb(0,51,118)" d="M 1741.77 576.045 C 1752.29 575.978 1771.73 574.732 1780.81 578.423 C 1784.38 581.638 1786.08 590.305 1785.62 594.422 C 1784.44 604.908 1787.19 676.543 1784.47 681.218 L 1782.21 681.806 C 1766.84 682.218 1750.44 681.992 1734.99 682.046 C 1734.83 652.773 1733.97 611.967 1735.33 582.187 C 1735.43 579.901 1739.65 577.446 1741.77 576.045 z"/>
<path transform="translate(0,0)" fill="rgb(253,248,239)" d="M 1674.32 680.186 C 1672.66 657.991 1673.1 619.601 1675.75 596.943 C 1676.53 590.201 1720.01 592.776 1720.59 594.078 C 1728.93 612.715 1724.64 660.525 1724 680.746 C 1718.54 683.052 1679.32 683.037 1674.32 680.186 z"/>
<path transform="translate(0,0)" fill="rgb(0,51,118)" d="M 1674.32 680.186 C 1684.56 679.987 1714.69 678.993 1724 680.746 C 1718.54 683.052 1679.32 683.037 1674.32 680.186 z"/>
<path transform="translate(0,0)" fill="rgb(253,248,239)" d="M 1613.44 636.156 C 1623.94 636.009 1651.38 634.739 1659.66 637.573 C 1665.13 642.989 1665.65 676.276 1662.45 681.172 L 1657.75 681.457 C 1640.89 681.793 1624.02 681.739 1607.17 681.294 C 1607.08 669.268 1605.71 653.541 1607.82 641.72 C 1608.31 638.995 1611.08 637.567 1613.44 636.156 z"/>
<path transform="translate(0,0)" fill="rgb(253,248,239)" d="M 1783.18 158.771 C 1788.5 163.679 1810.91 198.953 1816.22 207.067 C 1805.3 207.592 1794.4 207.526 1783.46 207.557 C 1772.62 207.705 1761.78 207.63 1750.94 207.331 C 1761.72 191.942 1772.77 174.59 1783.18 158.771 z"/>
<path transform="translate(0,0)" fill="rgb(253,248,239)" d="M 1609.53 158.512 C 1613.43 161.398 1638.09 200.196 1642.52 207.027 C 1632.78 207.334 1623.04 207.494 1613.29 207.508 L 1576.81 207.036 C 1587.88 192.021 1599.03 174.226 1609.53 158.512 z"/>
<path transform="translate(0,0)" fill="rgb(253,248,239)" d="M 1522.42 240.66 C 1529.1 248.014 1549.82 280.247 1554.91 289.09 C 1544.87 289.243 1534.46 289.121 1524.39 289.122 C 1513.14 289.199 1501.79 289.056 1490.54 288.993 C 1499.99 272.876 1511.76 256.103 1522.42 240.66 z"/>
<path transform="translate(0,0)" fill="rgb(253,248,239)" d="M 1696.27 240.592 C 1701.17 245.903 1723.42 281.094 1728.64 288.996 C 1718.3 289.198 1707.86 289.204 1697.51 289.286 L 1663.07 289.013 C 1674.44 273.914 1684.37 256.396 1696.27 240.592 z"/>
<path transform="translate(0,0)" fill="rgb(253,248,239)" d="M 1437.16 157.63 C 1447.7 174.193 1458.42 190.171 1468.82 206.952 L 1437.24 207.158 L 1404.36 206.941 C 1415.6 190.586 1425.32 173.837 1437.16 157.63 z"/>
<path transform="translate(0,0)" fill="rgb(253,248,239)" d="M 1610.01 322.617 C 1613.63 324.82 1638.39 364.246 1642.68 371.062 L 1612.5 371.185 L 1577.77 371.008 C 1588.2 355.077 1598.98 338.03 1610.01 322.617 z"/>
<path transform="translate(0,0)" fill="rgb(253,248,239)" d="M 1869.09 240.858 C 1877.97 251.337 1893.78 276.822 1901.67 289.073 L 1872.25 289.204 L 1837 289.162 C 1845.43 274.868 1859.4 254.372 1869.09 240.858 z"/>
<path transform="translate(0,0)" fill="rgb(253,248,239)" d="M 1784.34 322.721 C 1789.81 328.597 1812.37 363.723 1816.57 370.999 L 1785.5 371.199 L 1751.6 370.969 L 1784.34 322.721 z"/>
<path transform="translate(0,0)" fill="rgb(253,248,239)" d="M 1956.64 160.525 C 1962.46 165.01 1984.97 201.29 1988.4 209.142 C 1978.21 208.583 1967.53 208.719 1957.29 208.684 L 1925.03 208.486 C 1933.64 193.831 1946.99 175.023 1956.64 160.525 z"/>
<path transform="translate(0,0)" fill="rgb(253,248,239)" d="M 1958.21 322.583 C 1967.98 336.754 1981.75 356.396 1989.97 370.964 L 1958.85 371.152 L 1926.44 370.966 C 1936.09 355.366 1947.89 337.739 1958.21 322.583 z"/>
<path transform="translate(0,0)" fill="rgb(253,248,239)" d="M 1698.48 77.483 C 1702.44 80.6526 1725.6 116.393 1732 124.987 L 1701.48 125.006 L 1666.84 124.837 C 1677.28 110.467 1688.54 92.4898 1698.48 77.483 z"/>
<path transform="translate(0,0)" fill="rgb(253,248,239)" d="M 1869.28 77.7791 C 1874.41 83.141 1896.46 117.118 1901.77 125.106 L 1868.75 125.109 L 1837.2 124.9 L 1869.28 77.7791 z"/>
<path transform="translate(0,0)" fill="rgb(253,248,239)" d="M 1522.75 78.6432 C 1526.92 81.9029 1550.2 118.319 1554.6 125.039 L 1524.3 125.065 L 1491.48 124.997 C 1501.62 109.608 1511.93 93.497 1522.75 78.6432 z"/>
<path transform="translate(0,0)" fill="rgb(253,248,239)" d="M 1358.92 78.7952 C 1364.52 84.6926 1385.63 116.834 1391.21 125.071 L 1362.53 125.144 L 1327.68 124.995 C 1337.93 109.485 1348.34 94.0843 1358.92 78.7952 z"/>
<path transform="translate(0,0)" fill="rgb(7,85,198)" d="M 1084.96 603.725 C 1101.64 603.528 1104.92 618.793 1092.33 627.705 C 1076.07 629.782 1072.93 614.069 1084.96 603.725 z"/>
<path transform="translate(0,0)" fill="rgb(20,103,225)" d="M 1086.2 560.796 C 1087.38 560.85 1088.17 560.854 1089.28 561 C 1092.69 561.463 1095.75 563.329 1097.72 566.146 C 1102.85 573.414 1098.62 580.864 1092.18 585.218 C 1075.09 585.631 1072.73 569.361 1086.2 560.796 z"/>
<path transform="translate(0,0)" fill="rgb(20,103,225)" d="M 1085.12 518.849 C 1101.12 518.885 1104.56 533.942 1091.44 542.379 C 1076.05 543.393 1073.66 528.494 1085.12 518.849 z"/>
<path transform="translate(0,0)" fill="rgb(229,228,228)" d="M 1177.99 991.004 C 1179.87 992.175 1185.6 995.778 1187.59 996.022 C 1213.86 999.243 1243.08 996.385 1269.75 997.132 C 1275.17 997.283 1286.21 996.69 1290.4 997.496 C 1289.38 1007.67 1289.9 1025.22 1290.06 1035.89 L 1289.94 1061.71 C 1288.12 1073.3 1291.05 1082.85 1291.23 1094.51 C 1291.64 1101.08 1291.86 1106.36 1291.81 1112.93 C 1303.73 1112.63 1324.61 1112.7 1335.85 1111.43 C 1339.3 1113.04 1342.92 1112.72 1346.77 1112.78 C 1361.28 1113.04 1375.8 1113.06 1390.31 1112.84 C 1433.73 1112.99 1480.04 1111.73 1523.08 1112.94 L 1567.02 1113.02 C 1567.17 1107.97 1566.64 1104.96 1569.57 1101.25 L 1572.83 1100.91 C 1575.02 1100.56 1578.65 1100.32 1580.96 1100.1 L 1740.47 1100.34 C 1773.16 1100.4 1809.2 1101.34 1841.6 1100.25 C 1860.8 1100.33 1859.6 1101.4 1859.95 1121.14 C 1860.05 1126.8 1859.74 1132.58 1859.62 1138.24 C 1859.24 1144.96 1859.76 1149.12 1853.09 1151.93 C 1852.8 1154.48 1852.3 1156.07 1852.94 1158.41 C 1874.64 1157.15 1902.72 1157.9 1924.71 1157.92 L 2048 1157.96 L 2048 1343.79 L 2048 1394.5 L 2048 1497.55 L 2048 2048 L 558.154 2048 C 564.548 2036.21 572.973 2024.3 579.785 2012.7 C 600.647 1977.17 627.323 1939.96 647.153 1904.17 C 689.546 1903.9 715.39 1888.03 749.009 1864.27 C 760.171 1856.38 770.81 1848.93 781.388 1840.16 C 803.916 1839.92 883.456 1843.68 900.146 1835.46 C 911.669 1829.78 919.01 1818.91 922.971 1807.02 C 928.06 1780.94 922.589 1742.98 925.348 1715.95 C 926.025 1707.71 925.662 1691.15 925.711 1682.3 C 914.889 1673.87 908.496 1660.98 908.343 1647.26 C 908.191 1633.55 914.295 1620.52 924.927 1611.85 C 924.166 1605.55 924.049 1597.67 923.792 1591.21 C 936.824 1595.35 939.52 1596.01 953.007 1595.56 C 974.483 1588.19 985.987 1575.75 989.127 1553.04 C 989.676 1532.29 982.82 1514.82 961.911 1507.13 C 956.795 1505.25 953.019 1505.98 948.081 1502.75 C 951.036 1499.66 953.681 1497.7 956.994 1495.08 C 960.046 1494.69 964.355 1491.77 967.193 1490.13 C 981.63 1477.46 985.402 1467.2 986.68 1448.95 C 984.644 1422.81 966.74 1403.39 938.776 1406.48 C 933.008 1407.12 927.763 1409.46 921.975 1408.55 C 929.463 1402.41 937.577 1394.7 944.829 1388.12 C 957.986 1379.43 982.5 1357.84 989.835 1344.02 C 1006.77 1344.02 1026.45 1344.54 1043.14 1343.99 C 1054.13 1343.95 1066.94 1343.59 1077.78 1344.18 L 1077.58 1297.49 C 1077.51 1253.76 1099.99 1252.6 1136.55 1253.2 C 1136.73 1251.24 1136.6 1251.7 1136.98 1250.18 L 1138.05 1246.01 C 1142.07 1230.53 1141.43 1175.89 1140.62 1158.04 C 1089.56 1157.82 1034.85 1159.1 984.139 1157.7 C 977.025 1153.4 972.963 1151.6 973.004 1142.48 C 973.075 1126.66 969.096 1113.44 990.066 1113.11 C 1011.46 1112.78 1032.84 1112.89 1054.24 1112.9 L 1177.87 1112.97 L 1177.99 991.004 z"/>
<path transform="translate(0,0)" fill="rgb(229,228,228)" d="M 1177.99 991.004 C 1179.87 992.175 1185.6 995.778 1187.59 996.022 C 1213.86 999.243 1243.08 996.385 1269.75 997.132 C 1275.17 997.283 1286.21 996.69 1290.4 997.496 C 1289.38 1007.67 1289.9 1025.22 1290.06 1035.89 L 1289.94 1061.71 C 1288.12 1073.3 1291.05 1082.85 1291.23 1094.51 C 1291.64 1101.08 1291.86 1106.36 1291.81 1112.93 C 1303.73 1112.63 1324.61 1112.7 1335.85 1111.43 C 1339.3 1113.04 1342.92 1112.72 1346.77 1112.78 C 1361.28 1113.04 1375.8 1113.06 1390.31 1112.84 C 1433.73 1112.99 1480.04 1111.73 1523.08 1112.94 L 1567.02 1113.02 C 1567.17 1107.97 1566.64 1104.96 1569.57 1101.25 L 1572.83 1100.91 C 1575.02 1100.56 1578.65 1100.32 1580.96 1100.1 L 1740.47 1100.34 C 1773.16 1100.4 1809.2 1101.34 1841.6 1100.25 C 1860.8 1100.33 1859.6 1101.4 1859.95 1121.14 C 1860.05 1126.8 1859.74 1132.58 1859.62 1138.24 C 1859.24 1144.96 1859.76 1149.12 1853.09 1151.93 C 1852.8 1154.48 1852.3 1156.07 1852.94 1158.41 C 1874.64 1157.15 1902.72 1157.9 1924.71 1157.92 L 2048 1157.96 L 2048 1343.79 L 2048 1394.5 L 2048 1497.55 L 1968.68 1534.19 C 1960.56 1538 1934.19 1551.16 1927.19 1553.56 C 1922.25 1552.64 1907.18 1552.91 1901.38 1552.92 L 1851.64 1552.99 L 1673.05 1552.94 L 989.127 1553.04 C 989.676 1532.29 982.82 1514.82 961.911 1507.13 C 956.795 1505.25 953.019 1505.98 948.081 1502.75 C 951.036 1499.66 953.681 1497.7 956.994 1495.08 C 960.046 1494.69 964.355 1491.77 967.193 1490.13 C 981.63 1477.46 985.402 1467.2 986.68 1448.95 C 984.644 1422.81 966.74 1403.39 938.776 1406.48 C 933.008 1407.12 927.763 1409.46 921.975 1408.55 C 929.463 1402.41 937.577 1394.7 944.829 1388.12 C 957.986 1379.43 982.5 1357.84 989.835 1344.02 C 1006.77 1344.02 1026.45 1344.54 1043.14 1343.99 C 1054.13 1343.95 1066.94 1343.59 1077.78 1344.18 L 1077.58 1297.49 C 1077.51 1253.76 1099.99 1252.6 1136.55 1253.2 C 1136.73 1251.24 1136.6 1251.7 1136.98 1250.18 L 1138.05 1246.01 C 1142.07 1230.53 1141.43 1175.89 1140.62 1158.04 C 1089.56 1157.82 1034.85 1159.1 984.139 1157.7 C 977.025 1153.4 972.963 1151.6 973.004 1142.48 C 973.075 1126.66 969.096 1113.44 990.066 1113.11 C 1011.46 1112.78 1032.84 1112.89 1054.24 1112.9 L 1177.87 1112.97 L 1177.99 991.004 z"/>
<path transform="translate(0,0)" fill="rgb(204,203,203)" d="M 1280.08 1301.36 L 1321.99 1301.33 L 1321.86 1343.92 L 1497.2 1343.98 C 1497 1363.34 1496.59 1386.85 1521.81 1393.34 C 1533.57 1396.36 1553.2 1394.89 1566.05 1394.85 L 1629.78 1394.68 C 1633.8 1394.67 1650.23 1394.26 1651.36 1395.44 C 1659.25 1403.68 1656.3 1407.18 1671.74 1405.89 C 1679.25 1405.26 1682.61 1403.81 1683.34 1394.85 L 1835.64 1394.53 C 1862.48 1394.51 1894.72 1393.73 1921.25 1394.95 C 1920.83 1378.31 1921.53 1359.96 1921.41 1343.05 C 1926.26 1331.49 1943.33 1332.22 1949.71 1343.12 C 1974.06 1343.17 2015.86 1341.99 2039.27 1343.8 L 2048 1343.79 L 2048 1394.5 L 2048 1497.55 L 1968.68 1534.19 C 1960.56 1538 1934.19 1551.16 1927.19 1553.56 C 1922.25 1552.64 1907.18 1552.91 1901.38 1552.92 L 1851.64 1552.99 L 1673.05 1552.94 L 989.127 1553.04 C 989.676 1532.29 982.82 1514.82 961.911 1507.13 C 956.795 1505.25 953.019 1505.98 948.081 1502.75 C 951.036 1499.66 953.681 1497.7 956.994 1495.08 C 960.046 1494.69 964.355 1491.77 967.193 1490.13 C 981.63 1477.46 985.402 1467.2 986.68 1448.95 C 984.644 1422.81 966.74 1403.39 938.776 1406.48 C 933.008 1407.12 927.763 1409.46 921.975 1408.55 C 929.463 1402.41 937.577 1394.7 944.829 1388.12 C 957.986 1379.43 982.5 1357.84 989.835 1344.02 C 1006.77 1344.02 1026.45 1344.54 1043.14 1343.99 C 1054.13 1343.95 1066.94 1343.59 1077.78 1344.18 C 1084.97 1345.48 1103.95 1345.17 1111.97 1345.06 C 1126.96 1344.87 1143.31 1345.22 1158.22 1344.64 L 1158.28 1344.11 C 1170.63 1343.98 1275.46 1342.93 1279.5 1344.8 C 1280.54 1340.25 1280.11 1307.27 1280.08 1301.36 z"/>
<path transform="translate(0,0)" fill="rgb(204,203,203)" d="M 989.835 1344.02 C 1006.77 1344.02 1026.45 1344.54 1043.14 1343.99 C 1054.13 1343.95 1066.94 1343.59 1077.78 1344.18 C 1084.97 1345.48 1103.95 1345.17 1111.97 1345.06 C 1126.96 1344.87 1143.31 1345.22 1158.22 1344.64 L 1158.28 1344.11 C 1170.63 1343.98 1275.46 1342.93 1279.5 1344.8 C 1274.88 1398.39 1237.35 1435.26 1185.24 1445.52 C 1155.36 1451.4 1125.5 1448.37 1095.24 1449.15 C 1059.41 1449.21 1022.42 1449.59 986.68 1448.95 C 984.644 1422.81 966.74 1403.39 938.776 1406.48 C 933.008 1407.12 927.763 1409.46 921.975 1408.55 C 929.463 1402.41 937.577 1394.7 944.829 1388.12 C 957.986 1379.43 982.5 1357.84 989.835 1344.02 z"/>
<path transform="translate(0,0)" fill="rgb(0,51,118)" d="M 1077.78 1344.18 C 1084.97 1345.48 1103.95 1345.17 1111.97 1345.06 C 1126.96 1344.87 1143.31 1345.22 1158.22 1344.64 C 1160 1350.61 1159.32 1381.41 1159.26 1389.12 C 1120.59 1389.63 1081.91 1389.67 1043.24 1389.24 L 1043.14 1343.99 C 1054.13 1343.95 1066.94 1343.59 1077.78 1344.18 z"/>
<path transform="translate(0,0)" fill="rgb(253,248,239)" d="M 1280.08 1301.36 L 1321.99 1301.33 L 1321.86 1343.92 C 1317.82 1386.89 1302.11 1422.31 1268.66 1450.55 C 1215.44 1495.48 1156.6 1490.3 1091.83 1490.26 L 967.193 1490.13 C 981.63 1477.46 985.402 1467.2 986.68 1448.95 C 1022.42 1449.59 1059.41 1449.21 1095.24 1449.15 C 1125.5 1448.37 1155.36 1451.4 1185.24 1445.52 C 1237.35 1435.26 1274.88 1398.39 1279.5 1344.8 C 1280.54 1340.25 1280.11 1307.27 1280.08 1301.36 z"/>
<path transform="translate(0,0)" fill="rgb(0,51,118)" d="M 1921.41 1343.05 C 1926.26 1331.49 1943.33 1332.22 1949.71 1343.12 C 1974.06 1343.17 2015.86 1341.99 2039.27 1343.8 L 2048 1343.79 L 2048 1394.5 C 2016.46 1394.81 1980.96 1393.79 1950 1395.02 C 1949.69 1398.72 1949.84 1398.71 1948.12 1402.21 C 1939.16 1409.98 1924.23 1408.41 1921.25 1394.95 C 1920.83 1378.31 1921.53 1359.96 1921.41 1343.05 z"/>
<path transform="translate(0,0)" fill="rgb(7,85,198)" d="M 1921.41 1343.05 C 1926.26 1331.49 1943.33 1332.22 1949.71 1343.12 C 1974.06 1343.17 2015.86 1341.99 2039.27 1343.8 C 2010.52 1344.38 1978.09 1344.11 1949.2 1343.66 C 1949.27 1357.29 1948.7 1382.26 1950 1395.02 C 1949.69 1398.72 1949.84 1398.71 1948.12 1402.21 C 1939.16 1409.98 1924.23 1408.41 1921.25 1394.95 C 1920.83 1378.31 1921.53 1359.96 1921.41 1343.05 z"/>
<path transform="translate(0,0)" fill="rgb(253,248,239)" d="M 1408.34 1415.16 C 1429.16 1410.75 1449.59 1424.16 1453.82 1445.02 C 1458.05 1465.88 1444.47 1486.19 1423.58 1490.25 C 1402.93 1494.26 1382.92 1480.87 1378.73 1460.26 C 1374.55 1439.65 1387.76 1419.52 1408.34 1415.16 z"/>
<path transform="translate(0,0)" fill="rgb(253,248,239)" d="M 1648.25 1438.39 C 1658 1437.18 1666.87 1444.12 1668.05 1453.86 C 1669.24 1463.61 1662.29 1472.47 1652.54 1473.63 C 1642.82 1474.79 1633.99 1467.87 1632.81 1458.15 C 1631.63 1448.43 1638.54 1439.59 1648.25 1438.39 z"/>
<path transform="translate(0,0)" fill="rgb(253,248,239)" d="M 1582.36 1438.39 C 1588.67 1437.36 1595.04 1439.82 1599.03 1444.81 C 1603.03 1449.8 1604.02 1456.56 1601.64 1462.49 C 1599.25 1468.42 1593.86 1472.6 1587.52 1473.44 C 1577.92 1474.71 1569.08 1468.04 1567.67 1458.46 C 1566.26 1448.88 1572.8 1439.94 1582.36 1438.39 z"/>
<path transform="translate(0,0)" fill="rgb(253,248,239)" d="M 1516.14 1438.39 C 1525.56 1437.04 1534.35 1443.37 1536.07 1452.72 C 1537.79 1462.07 1531.82 1471.11 1522.55 1473.21 C 1516.48 1474.57 1510.14 1472.66 1505.84 1468.16 C 1501.25 1463.36 1499.74 1456.4 1501.91 1450.13 C 1504.08 1443.86 1509.57 1439.32 1516.14 1438.39 z"/>
<path transform="translate(0,0)" fill="url(#Gradient1)" d="M 1177.99 991.004 C 1179.87 992.175 1185.6 995.778 1187.59 996.022 C 1213.86 999.243 1243.08 996.385 1269.75 997.132 C 1275.17 997.283 1286.21 996.69 1290.4 997.496 C 1289.38 1007.67 1289.9 1025.22 1290.06 1035.89 L 1289.94 1061.71 C 1288.12 1073.3 1291.05 1082.85 1291.23 1094.51 C 1291.64 1101.08 1291.86 1106.36 1291.81 1112.93 C 1303.73 1112.63 1324.61 1112.7 1335.85 1111.43 C 1339.3 1113.04 1342.92 1112.72 1346.77 1112.78 C 1361.28 1113.04 1375.8 1113.06 1390.31 1112.84 C 1433.73 1112.99 1480.04 1111.73 1523.08 1112.94 L 1567.02 1113.02 C 1567.17 1107.97 1566.64 1104.96 1569.57 1101.25 L 1572.83 1100.91 C 1575.02 1100.56 1578.65 1100.32 1580.96 1100.1 L 1740.47 1100.34 C 1773.16 1100.4 1809.2 1101.34 1841.6 1100.25 C 1860.8 1100.33 1859.6 1101.4 1859.95 1121.14 C 1860.05 1126.8 1859.74 1132.58 1859.62 1138.24 C 1859.24 1144.96 1859.76 1149.12 1853.09 1151.93 C 1852.8 1154.48 1852.3 1156.07 1852.94 1158.41 C 1848.94 1159.49 1844.19 1160.63 1840.32 1161.88 C 1837.75 1171.86 1830.84 1189.23 1829.4 1196.04 L 1824.31 1203.97 L 1820.66 1208.12 C 1812.34 1223.83 1811.29 1226.39 1799.01 1239.55 L 1798.28 1242.79 L 1796.99 1242.19 C 1794.5 1243.48 1795.51 1243.3 1792.78 1243.2 L 1790.68 1239.92 C 1780.39 1244.62 1771.27 1247.74 1760.62 1251.49 C 1750.26 1254.64 1743.75 1256.36 1733.1 1258.53 C 1730.01 1258.5 1727.73 1258.02 1725.4 1259.83 C 1721.77 1257.72 1707.16 1259.45 1702.06 1259.08 C 1691.85 1258.33 1679.86 1254.9 1670.02 1252.13 C 1660.78 1247.92 1649.55 1245.66 1640.87 1238.82 C 1638.09 1236.63 1636.85 1234.4 1634.24 1232.08 L 1633.06 1231.05 L 1632.62 1229.97 C 1629.39 1227.09 1626.52 1224.54 1623.47 1221.45 C 1614.34 1212.69 1609.03 1205.75 1601.23 1197.84 C 1601.09 1193.87 1591.75 1177.5 1589.93 1172.15 C 1588.3 1167.38 1587.48 1164.36 1586.3 1159.3 C 1557.6 1156.71 1517.57 1157.95 1487.86 1157.95 L 1321.87 1157.96 L 1280.26 1157.97 L 1140.62 1158.04 C 1089.56 1157.82 1034.85 1159.1 984.139 1157.7 C 977.025 1153.4 972.963 1151.6 973.004 1142.48 C 973.075 1126.66 969.096 1113.44 990.066 1113.11 C 1011.46 1112.78 1032.84 1112.89 1054.24 1112.9 L 1177.87 1112.97 L 1177.99 991.004 z"/>
<path transform="translate(0,0)" fill="rgb(253,248,239)" d="M 1580.96 1100.1 L 1740.47 1100.34 C 1773.16 1100.4 1809.2 1101.34 1841.6 1100.25 C 1860.8 1100.33 1859.6 1101.4 1859.95 1121.14 C 1860.05 1126.8 1859.74 1132.58 1859.62 1138.24 C 1859.24 1144.96 1859.76 1149.12 1853.09 1151.93 C 1840.78 1150.9 1826.1 1152 1813.58 1151.6 C 1777.66 1150.45 1735.15 1153.47 1699.68 1151.16 C 1683.84 1152.15 1655.03 1150.95 1638.5 1151.24 C 1624.31 1151.49 1581.45 1152.33 1569.14 1149.89 C 1565.64 1145.25 1566.96 1120.62 1567.02 1113.02 C 1567.17 1107.97 1566.64 1104.96 1569.57 1101.25 L 1572.83 1100.91 C 1575.02 1100.56 1578.65 1100.32 1580.96 1100.1 z"/>
<path transform="translate(0,0)" fill="rgb(229,228,228)" d="M 1580.96 1100.1 L 1740.47 1100.34 C 1773.16 1100.4 1809.2 1101.34 1841.6 1100.25 C 1860.8 1100.33 1859.6 1101.4 1859.95 1121.14 C 1860.05 1126.8 1859.74 1132.58 1859.62 1138.24 C 1859.24 1144.96 1859.76 1149.12 1853.09 1151.93 C 1840.78 1150.9 1826.1 1152 1813.58 1151.6 C 1777.66 1150.45 1735.15 1153.47 1699.68 1151.16 C 1712.35 1149.6 1752.82 1150.69 1767.21 1150.73 C 1768.65 1136.99 1768.28 1114.92 1766.74 1101.29 L 1641.83 1101.31 C 1620.37 1101.31 1593.91 1102 1572.83 1100.91 C 1575.02 1100.56 1578.65 1100.32 1580.96 1100.1 z"/>
<path transform="translate(0,0)" fill="rgb(20,103,225)" d="M 1177.99 991.004 C 1179.87 992.175 1185.6 995.778 1187.59 996.022 C 1213.86 999.243 1243.08 996.385 1269.75 997.132 C 1275.17 997.283 1286.21 996.69 1290.4 997.496 C 1289.38 1007.67 1289.9 1025.22 1290.06 1035.89 L 1289.94 1061.71 C 1288.12 1073.3 1291.05 1082.85 1291.23 1094.51 C 1291.21 1100.57 1291.15 1106.71 1291.21 1112.76 C 1281.27 1112.87 1243.77 1113.78 1235.99 1112.4 L 1222.32 1112.77 C 1209.48 1112.18 1191.14 1112.88 1177.87 1112.97 L 1177.99 991.004 z"/>
<path transform="translate(0,0)" fill="rgb(0,51,118)" d="M 1222.27 1018.13 C 1234.67 1018.51 1248.2 1018.16 1260.71 1018.04 C 1261.43 1036.21 1260.96 1056.58 1260.87 1074.9 C 1266.86 1072.24 1271.49 1070.57 1277.69 1068.42 C 1310.88 1088.44 1262.33 1088.48 1249.86 1092.56 C 1243.92 1099.06 1240.61 1104.98 1235.99 1112.4 L 1222.32 1112.77 C 1221.04 1084.74 1222.21 1046.97 1222.27 1018.13 z"/>
<path transform="translate(0,0)" fill="rgb(4,58,152)" d="M 1798.84 1207.78 C 1798.9 1202.51 1798.14 1198.26 1801.05 1194.38 L 1803.84 1194.69 C 1808.99 1198.56 1816.26 1203.73 1820.66 1208.12 C 1812.34 1223.83 1811.29 1226.39 1799.01 1239.55 C 1799.03 1228.96 1798.97 1218.37 1798.84 1207.78 z"/>
<path transform="translate(0,0)" fill="rgb(113,173,246)" d="M 1790.68 1239.92 C 1790.72 1233.17 1793.13 1212.11 1798.84 1207.78 C 1798.97 1218.37 1799.03 1228.96 1799.01 1239.55 L 1798.28 1242.79 L 1796.99 1242.19 C 1794.5 1243.48 1795.51 1243.3 1792.78 1243.2 L 1790.68 1239.92 z"/>
<path transform="translate(0,0)" fill="rgb(4,58,152)" d="M 1623.47 1221.45 C 1624.09 1213.73 1624.97 1212.23 1628.89 1205.58 C 1630.54 1214.01 1631.53 1221.42 1632.62 1229.97 C 1629.39 1227.09 1626.52 1224.54 1623.47 1221.45 z"/>
<path transform="translate(0,0)" fill="rgb(20,103,225)" d="M 1803.84 1194.69 C 1816.09 1195.05 1816.73 1195.4 1824.31 1203.97 L 1820.66 1208.12 C 1816.26 1203.73 1808.99 1198.56 1803.84 1194.69 z"/>
<path transform="translate(0,0)" fill="rgb(113,173,246)" d="M 1698.24 1179.23 C 1705.07 1178.81 1715.02 1177.22 1717.18 1185.33 C 1716.17 1189.39 1716.07 1189.2 1713.24 1192.45 C 1706.57 1193.02 1698.26 1192.89 1695.17 1186.07 C 1695.41 1182.31 1695.94 1182.19 1698.24 1179.23 z"/>
<path transform="translate(0,0)" fill="rgb(113,173,246)" d="M 1669.06 1162.61 C 1672.6 1161.05 1676.73 1162.66 1678.28 1166.21 C 1679.83 1169.76 1678.19 1173.89 1674.64 1175.42 C 1671.11 1176.94 1667 1175.32 1665.47 1171.79 C 1663.93 1168.26 1665.54 1164.16 1669.06 1162.61 z"/>
<path transform="translate(0,0)" fill="rgb(229,228,228)" d="M 1852.94 1158.41 C 1874.64 1157.15 1902.72 1157.9 1924.71 1157.92 L 2048 1157.96 L 2048 1343.79 L 2039.27 1343.8 C 2015.86 1341.99 1974.06 1343.17 1949.71 1343.12 C 1943.33 1332.22 1926.26 1331.49 1921.41 1343.05 C 1893.51 1344 1857.58 1344.31 1829.82 1343.18 C 1829.77 1328.73 1830.15 1311.72 1829.15 1297.54 C 1829.83 1292.05 1829.63 1273.07 1829.66 1266.56 L 1829.4 1196.04 C 1830.84 1189.23 1837.75 1171.86 1840.32 1161.88 C 1844.19 1160.63 1848.94 1159.49 1852.94 1158.41 z"/>
<path transform="translate(0,0)" fill="rgb(0,51,118)" d="M 1829.4 1196.04 L 1829.66 1266.56 C 1829.63 1273.07 1829.83 1292.05 1829.15 1297.54 C 1830.15 1311.72 1829.77 1328.73 1829.82 1343.18 C 1857.58 1344.31 1893.51 1344 1921.41 1343.05 C 1921.53 1359.96 1920.83 1378.31 1921.25 1394.95 C 1894.72 1393.73 1862.48 1394.51 1835.64 1394.53 L 1683.34 1394.85 C 1683.2 1385.58 1682.19 1351.04 1683.93 1344.5 L 1686.77 1343.6 L 1684.09 1342.91 C 1683.41 1341.97 1680 1337.27 1679.35 1337.08 C 1670.65 1334.51 1662.17 1332.45 1656.44 1341.17 C 1653.85 1345.11 1637.89 1344.06 1632.95 1344.02 C 1622.31 1344.14 1611.68 1344.12 1601.04 1343.96 C 1602.33 1297.18 1601.15 1245.09 1601.23 1197.84 C 1609.03 1205.75 1614.34 1212.69 1623.47 1221.45 C 1626.52 1224.54 1629.39 1227.09 1632.62 1229.97 L 1633.06 1231.05 L 1634.24 1232.08 C 1636.85 1234.4 1638.09 1236.63 1640.87 1238.82 C 1649.55 1245.66 1660.78 1247.92 1670.02 1252.13 C 1679.86 1254.9 1691.85 1258.33 1702.06 1259.08 C 1707.16 1259.45 1721.77 1257.72 1725.4 1259.83 C 1727.73 1258.02 1730.01 1258.5 1733.1 1258.53 C 1743.75 1256.36 1750.26 1254.64 1760.62 1251.49 C 1771.27 1247.74 1780.39 1244.62 1790.68 1239.92 L 1792.78 1243.2 C 1795.51 1243.3 1794.5 1243.48 1796.99 1242.19 L 1798.28 1242.79 L 1799.01 1239.55 C 1811.29 1226.39 1812.34 1223.83 1820.66 1208.12 L 1824.31 1203.97 L 1829.4 1196.04 z"/>
<path transform="translate(0,0)" fill="rgb(0,51,118)" d="M 1829.4 1196.04 L 1829.66 1266.56 C 1829.63 1273.07 1829.83 1292.05 1829.15 1297.54 C 1830.15 1311.72 1829.77 1328.73 1829.82 1343.18 C 1821.03 1345.16 1806.02 1346.34 1797.4 1343.79 L 1799.12 1341.92 L 1798.93 1319.48 C 1781.6 1301.32 1752.33 1274.94 1733.1 1258.53 C 1743.75 1256.36 1750.26 1254.64 1760.62 1251.49 C 1771.27 1247.74 1780.39 1244.62 1790.68 1239.92 L 1792.78 1243.2 C 1795.51 1243.3 1794.5 1243.48 1796.99 1242.19 L 1798.28 1242.79 L 1799.01 1239.55 C 1811.29 1226.39 1812.34 1223.83 1820.66 1208.12 L 1824.31 1203.97 L 1829.4 1196.04 z"/>
<path transform="translate(0,0)" fill="rgb(229,228,228)" d="M 1790.68 1239.92 L 1792.78 1243.2 C 1795.51 1243.3 1794.5 1243.48 1796.99 1242.19 L 1798.28 1242.79 C 1798.64 1257.49 1798.7 1272.18 1798.48 1286.88 C 1785.96 1274.97 1773.34 1263.17 1760.62 1251.49 C 1771.27 1247.74 1780.39 1244.62 1790.68 1239.92 z"/>
<path transform="translate(0,0)" fill="rgb(4,58,152)" d="M 1829.15 1297.54 C 1830.15 1311.72 1829.77 1328.73 1829.82 1343.18 C 1821.03 1345.16 1806.02 1346.34 1797.4 1343.79 L 1799.12 1341.92 C 1801.99 1342.93 1822.1 1341.95 1828.59 1342.52 C 1828.56 1330.46 1827.88 1308.66 1829.15 1297.54 z"/>
<path transform="translate(0,0)" fill="rgb(229,228,228)" d="M 1725.4 1259.83 C 1727.73 1258.02 1730.01 1258.5 1733.1 1258.53 C 1752.33 1274.94 1781.6 1301.32 1798.93 1319.48 L 1799.12 1341.92 L 1797.4 1343.79 C 1778.24 1342.4 1745.82 1343.42 1725.51 1343.44 C 1726.14 1316.43 1725.42 1287.07 1725.4 1259.83 z"/>
<path transform="translate(0,0)" fill="rgb(229,228,228)" d="M 1632.87 1319.61 C 1652.99 1299.7 1674.16 1278.59 1695.09 1259.57 C 1695.11 1270.45 1695.73 1337.52 1694.39 1343.05 C 1691.13 1344.2 1690.16 1343.89 1686.77 1343.6 L 1684.09 1342.91 C 1683.41 1341.97 1680 1337.27 1679.35 1337.08 C 1670.65 1334.51 1662.17 1332.45 1656.44 1341.17 C 1653.85 1345.11 1637.89 1344.06 1632.95 1344.02 L 1632.87 1319.61 z"/>
<path transform="translate(0,0)" fill="rgb(229,228,228)" d="M 1633.06 1231.05 L 1634.24 1232.08 C 1636.85 1234.4 1638.09 1236.63 1640.87 1238.82 C 1649.55 1245.66 1660.78 1247.92 1670.02 1252.13 C 1659.82 1263.05 1644.31 1276.73 1633.03 1287.19 C 1632.35 1268.97 1632.61 1249.27 1633.06 1231.05 z"/>
<path transform="translate(0,0)" fill="rgb(229,228,228)" d="M 1208.33 1253.12 C 1212.53 1241.63 1230.17 1246.94 1237.76 1252.3 C 1239.9 1253.8 1242.75 1253.64 1245.24 1253.71 C 1275.48 1253.54 1305.72 1253.56 1335.97 1253.76 C 1355.61 1254.7 1379.04 1254.04 1398.95 1253.98 L 1398.86 1300.54 C 1392.38 1300.27 1385.3 1299.76 1378.88 1300.24 C 1383.04 1300.48 1395.49 1300.49 1398.36 1301.69 C 1399.7 1305.69 1399.98 1309.49 1404.11 1311.47 C 1410.12 1314.33 1416 1312.64 1421.86 1310.34 C 1426.77 1308.42 1427.23 1305.45 1428.57 1300.85 C 1451.22 1300.81 1474.63 1300.48 1497.21 1300.9 L 1497.2 1343.98 L 1321.86 1343.92 L 1321.99 1301.33 L 1280.08 1301.36 C 1280.11 1307.27 1280.54 1340.25 1279.5 1344.8 C 1275.46 1342.93 1170.63 1343.98 1158.28 1344.11 L 1158.22 1344.64 C 1143.31 1345.22 1126.96 1344.87 1111.97 1345.06 C 1103.95 1345.17 1084.97 1345.48 1077.78 1344.18 L 1077.58 1297.49 C 1077.51 1253.76 1099.99 1252.6 1136.55 1253.2 L 1208.33 1253.12 z"/>
<path transform="translate(0,0)" fill="rgb(4,58,152)" d="M 1208.33 1253.12 C 1212.53 1241.63 1230.17 1246.94 1237.76 1252.3 C 1239.9 1253.8 1242.75 1253.64 1245.24 1253.71 C 1275.48 1253.54 1305.72 1253.56 1335.97 1253.76 C 1355.61 1254.7 1379.04 1254.04 1398.95 1253.98 L 1398.86 1300.54 C 1392.38 1300.27 1385.3 1299.76 1378.88 1300.24 L 1247.34 1300.25 C 1243.29 1300.42 1241.36 1300.32 1237.52 1301.42 C 1236.71 1304.84 1236.58 1305.55 1235.14 1308.88 C 1227.63 1314.06 1218.83 1313.68 1210.9 1309.08 C 1208.34 1307.59 1207.8 1303.15 1207.26 1300.39 L 1207.95 1299.82 C 1209.08 1294.12 1209.76 1259.55 1208.05 1254.14 L 1208.33 1253.12 z"/>
<path transform="translate(0,0)" fill="rgb(20,103,225)" d="M 1208.33 1253.12 C 1212.53 1241.63 1230.17 1246.94 1237.76 1252.3 C 1239.9 1253.8 1242.75 1253.64 1245.24 1253.71 L 1237.93 1254.18 C 1236.64 1256.04 1237.21 1294.69 1237.84 1299.12 C 1241.32 1300.5 1243.61 1300.23 1247.34 1300.25 C 1243.29 1300.42 1241.36 1300.32 1237.52 1301.42 C 1236.71 1304.84 1236.58 1305.55 1235.14 1308.88 C 1227.63 1314.06 1218.83 1313.68 1210.9 1309.08 C 1208.34 1307.59 1207.8 1303.15 1207.26 1300.39 L 1207.95 1299.82 C 1209.08 1294.12 1209.76 1259.55 1208.05 1254.14 L 1208.33 1253.12 z"/>
<path transform="translate(0,0)" fill="rgb(7,85,198)" d="M 1136.55 1253.2 L 1208.33 1253.12 L 1208.05 1254.14 C 1209.76 1259.55 1209.08 1294.12 1207.95 1299.82 L 1207.26 1300.39 C 1183.76 1300.01 1160.25 1300.02 1136.74 1300.4 L 1140.09 1301.72 C 1141.86 1310.08 1134.16 1324.6 1128.91 1331 L 1128.57 1344.36 L 1158.28 1344.11 L 1158.22 1344.64 C 1143.31 1345.22 1126.96 1344.87 1111.97 1345.06 C 1103.95 1345.17 1084.97 1345.48 1077.78 1344.18 L 1077.58 1297.49 C 1077.51 1253.76 1099.99 1252.6 1136.55 1253.2 z"/>
<path transform="translate(0,0)" fill="rgb(253,248,239)" d="M 1128.91 1331 C 1128.71 1320.88 1126.73 1312.01 1129.7 1302.5 C 1132.26 1299.98 1132.05 1300.81 1136.74 1300.4 L 1140.09 1301.72 C 1141.86 1310.08 1134.16 1324.6 1128.91 1331 z"/>
<path transform="translate(0,0)" fill="rgb(4,58,152)" d="M 1208.05 1254.14 C 1209.76 1259.55 1209.08 1294.12 1207.95 1299.82 C 1206.41 1293.22 1205.75 1259.57 1208.05 1254.14 z"/>
<path transform="translate(0,0)" fill="rgb(7,85,198)" d="M 1335.97 1253.76 C 1352.74 1252.86 1383.93 1254.64 1397.94 1252.6 C 1404.28 1241.59 1410.55 1244.23 1422.29 1245.16 C 1424.31 1247.69 1426.6 1250.43 1428.35 1253.12 C 1457.61 1253.4 1494.36 1251.77 1523.29 1254.91 C 1528.33 1255.46 1536.39 1260.5 1540.13 1264.45 C 1543.4 1267.87 1545.78 1272.03 1547.07 1276.58 C 1550.08 1287.39 1548.64 1330.55 1548.51 1343.81 C 1564.17 1343.76 1585.67 1343.12 1601.04 1343.96 C 1611.68 1344.12 1622.31 1344.14 1632.95 1344.02 C 1637.89 1344.06 1653.85 1345.11 1656.44 1341.17 C 1662.17 1332.45 1670.65 1334.51 1679.35 1337.08 C 1680 1337.27 1683.41 1341.97 1684.09 1342.91 L 1686.77 1343.6 L 1683.93 1344.5 C 1682.19 1351.04 1683.2 1385.58 1683.34 1394.85 C 1682.61 1403.81 1679.25 1405.26 1671.74 1405.89 C 1656.3 1407.18 1659.25 1403.68 1651.36 1395.44 C 1650.23 1394.26 1633.8 1394.67 1629.78 1394.68 L 1566.05 1394.85 C 1553.2 1394.89 1533.57 1396.36 1521.81 1393.34 C 1496.59 1386.85 1497 1363.34 1497.2 1343.98 L 1497.21 1300.9 C 1474.63 1300.48 1451.22 1300.81 1428.57 1300.85 C 1427.23 1305.45 1426.77 1308.42 1421.86 1310.34 C 1416 1312.64 1410.12 1314.33 1404.11 1311.47 C 1399.98 1309.49 1399.7 1305.69 1398.36 1301.69 C 1395.49 1300.49 1383.04 1300.48 1378.88 1300.24 C 1385.3 1299.76 1392.38 1300.27 1398.86 1300.54 L 1398.95 1253.98 C 1379.04 1254.04 1355.61 1254.7 1335.97 1253.76 z"/>
<path transform="translate(0,0)" fill="rgb(4,58,152)" d="M 1427.34 1253.78 C 1430.32 1257.67 1428.8 1290.72 1428.61 1298.16 C 1425.65 1294.59 1426.84 1260.3 1427.34 1253.78 z"/>
<path transform="translate(0,0)" fill="rgb(253,248,239)" d="M 1280.26 1157.97 L 1321.87 1157.96 C 1321.66 1189.53 1321.67 1221.1 1321.93 1252.67 L 1280.1 1252.63 C 1280.35 1221.08 1280.4 1189.53 1280.26 1157.97 z"/>
<path transform="translate(0,0)" fill="rgb(20,103,225)" d="M 989.127 1553.04 L 1673.05 1552.94 L 1851.64 1552.99 L 1901.38 1552.92 C 1907.18 1552.91 1922.25 1552.64 1927.19 1553.56 L 1520.73 1742.76 L 1429.71 1784.96 C 1417.9 1790.43 1392.55 1803.02 1380.69 1806.02 C 1374.07 1807.7 1343.4 1807.07 1335.32 1807.05 L 1254.16 1806.96 L 922.971 1807.02 C 928.06 1780.94 922.589 1742.98 925.348 1715.95 C 926.025 1707.71 925.662 1691.15 925.711 1682.3 C 914.889 1673.87 908.496 1660.98 908.343 1647.26 C 908.191 1633.55 914.295 1620.52 924.927 1611.85 C 924.166 1605.55 924.049 1597.67 923.792 1591.21 C 936.824 1595.35 939.52 1596.01 953.007 1595.56 C 974.483 1588.19 985.987 1575.75 989.127 1553.04 z"/>
<path transform="translate(0,0)" fill="rgb(248,123,144)" d="M 923.792 1591.21 C 936.824 1595.35 939.52 1596.01 953.007 1595.56 C 952.964 1598.58 952.683 1599.08 954.13 1601.74 C 978.752 1602.15 998.475 1622.26 998.406 1646.89 C 998.338 1671.51 978.503 1691.52 953.88 1691.79 C 943.686 1691.91 933.755 1688.56 925.711 1682.3 C 914.889 1673.87 908.496 1660.98 908.343 1647.26 C 908.191 1633.55 914.295 1620.52 924.927 1611.85 C 924.166 1605.55 924.049 1597.67 923.792 1591.21 z"/>
<path transform="translate(0,0)" fill="rgb(229,77,96)" d="M 923.792 1591.21 C 936.824 1595.35 939.52 1596.01 953.007 1595.56 C 952.964 1598.58 952.683 1599.08 954.13 1601.74 C 943.507 1601.56 933.163 1605.14 924.927 1611.85 C 924.166 1605.55 924.049 1597.67 923.792 1591.21 z"/>
<path transform="translate(0,0)" fill="rgb(229,77,96)" d="M 925.711 1682.3 C 933.755 1688.56 943.686 1691.91 953.88 1691.79 C 942.741 1699.35 935.034 1706.67 925.348 1715.95 C 926.025 1707.71 925.662 1691.15 925.711 1682.3 z"/>
<path transform="translate(0,0)" fill="rgb(204,203,203)" d="M 702.357 1165.92 C 756.781 1164.37 812.642 1166.67 866.48 1165.78 C 917.593 1164.93 924.811 1194.4 922.57 1238.13 C 921.976 1249.72 922.642 1264.38 922.533 1276.1 C 922.501 1283.12 922.294 1290.14 921.912 1297.16 C 920.48 1304.57 920.866 1320.5 920.894 1328.51 L 921.139 1375.97 C 923.079 1380.16 922.354 1379.32 927.795 1381.4 C 934.138 1383.81 938.825 1384.6 944.829 1388.12 C 937.577 1394.7 929.463 1402.41 921.975 1408.55 C 927.763 1409.46 933.008 1407.12 938.776 1406.48 C 966.74 1403.39 984.644 1422.81 986.68 1448.95 C 985.402 1467.2 981.63 1477.46 967.193 1490.13 C 964.355 1491.77 960.046 1494.69 956.994 1495.08 C 953.681 1497.7 951.036 1499.66 948.081 1502.75 C 953.019 1505.98 956.795 1505.25 961.911 1507.13 C 982.82 1514.82 989.676 1532.29 989.127 1553.04 C 985.987 1575.75 974.483 1588.19 953.007 1595.56 C 939.52 1596.01 936.824 1595.35 923.792 1591.21 C 924.049 1597.67 924.166 1605.55 924.927 1611.85 C 914.295 1620.52 908.191 1633.55 908.343 1647.26 C 908.496 1660.98 914.889 1673.87 925.711 1682.3 C 925.662 1691.15 926.025 1707.71 925.348 1715.95 C 922.589 1742.98 928.06 1780.94 922.971 1807.02 C 919.01 1818.91 911.669 1829.78 900.146 1835.46 C 883.456 1843.68 803.916 1839.92 781.388 1840.16 C 770.81 1848.93 760.171 1856.38 749.009 1864.27 C 715.39 1888.03 689.546 1903.9 647.153 1904.17 C 627.323 1939.96 600.647 1977.17 579.785 2012.7 C 572.973 2024.3 564.548 2036.21 558.154 2048 L 162.332 2048 L 0 2048 L 0 1806.67 L 0 1390.37 L 449.78 1390.34 C 456.393 1372.38 463.948 1327.13 468.501 1306.55 C 469.918 1300.19 471.379 1293.84 472.883 1287.51 C 477.366 1268.93 484.835 1245.94 509.84 1253.56 C 527.098 1258.82 536.181 1273.61 544.18 1288.64 C 546.471 1286.44 550.049 1284.53 552.865 1282.84 C 554.161 1280.37 553.322 1243.34 553.064 1239.4 C 550.529 1198.44 555.351 1166.94 605.082 1166.23 C 637.274 1165.77 670.379 1167.21 702.357 1165.92 z"/>
<path transform="translate(0,0)" fill="rgb(0,51,118)" d="M 702.357 1165.92 C 756.781 1164.37 812.642 1166.67 866.48 1165.78 C 917.593 1164.93 924.811 1194.4 922.57 1238.13 C 921.976 1249.72 922.642 1264.38 922.533 1276.1 C 922.501 1283.12 922.294 1290.14 921.912 1297.16 C 920.48 1304.57 920.866 1320.5 920.894 1328.51 L 921.139 1375.97 C 923.079 1380.16 922.354 1379.32 927.795 1381.4 C 934.138 1383.81 938.825 1384.6 944.829 1388.12 C 937.577 1394.7 929.463 1402.41 921.975 1408.55 C 927.763 1409.46 933.008 1407.12 938.776 1406.48 C 966.74 1403.39 984.644 1422.81 986.68 1448.95 C 985.402 1467.2 981.63 1477.46 967.193 1490.13 C 964.355 1491.77 960.046 1494.69 956.994 1495.08 C 953.681 1497.7 951.036 1499.66 948.081 1502.75 C 953.019 1505.98 956.795 1505.25 961.911 1507.13 C 982.82 1514.82 989.676 1532.29 989.127 1553.04 C 985.987 1575.75 974.483 1588.19 953.007 1595.56 C 939.52 1596.01 936.824 1595.35 923.792 1591.21 C 924.049 1597.67 924.166 1605.55 924.927 1611.85 C 914.295 1620.52 908.191 1633.55 908.343 1647.26 C 908.496 1660.98 914.889 1673.87 925.711 1682.3 C 925.662 1691.15 926.025 1707.71 925.348 1715.95 C 922.589 1742.98 928.06 1780.94 922.971 1807.02 C 919.01 1818.91 911.669 1829.78 900.146 1835.46 C 883.456 1843.68 803.916 1839.92 781.388 1840.16 C 770.81 1848.93 760.171 1856.38 749.009 1864.27 C 715.39 1888.03 689.546 1903.9 647.153 1904.17 C 608.733 1897.59 555.918 1872.45 547.964 1830.02 C 545.236 1815.47 545.106 1781.89 553.437 1769.54 C 551.782 1712.5 553.888 1649.27 553.271 1591.31 C 554.518 1573.44 553.672 1545.24 553.657 1526.69 L 553.173 1393.19 C 554.227 1374.96 554.85 1330.04 551.597 1314.1 C 549.685 1305.47 546.851 1297.07 544.18 1288.64 C 546.471 1286.44 550.049 1284.53 552.865 1282.84 C 554.161 1280.37 553.322 1243.34 553.064 1239.4 C 550.529 1198.44 555.351 1166.94 605.082 1166.23 C 637.274 1165.77 670.379 1167.21 702.357 1165.92 z"/>
<path transform="translate(0,0)" fill="rgb(229,77,96)" d="M 553.437 1769.54 C 554.17 1791.9 550.084 1812.19 567.578 1828.66 C 573.915 1834.68 581.93 1838.64 590.566 1840.02 C 600.683 1841.63 640.554 1840.75 653.131 1840.7 L 781.388 1840.16 C 770.81 1848.93 760.171 1856.38 749.009 1864.27 C 715.39 1888.03 689.546 1903.9 647.153 1904.17 C 608.733 1897.59 555.918 1872.45 547.964 1830.02 C 545.236 1815.47 545.106 1781.89 553.437 1769.54 z"/>
<path transform="translate(0,0)" fill="rgb(248,123,144)" d="M 921.975 1408.55 C 927.763 1409.46 933.008 1407.12 938.776 1406.48 C 966.74 1403.39 984.644 1422.81 986.68 1448.95 C 985.402 1467.2 981.63 1477.46 967.193 1490.13 C 964.355 1491.77 960.046 1494.69 956.994 1495.08 C 953.681 1497.7 951.036 1499.66 948.081 1502.75 C 939.544 1503.71 930.965 1505.51 923.332 1509.63 C 923.123 1504.03 923.116 1498.11 923.025 1492.48 C 917.342 1490.14 913.408 1487.75 908.938 1483.4 C 900.546 1475.19 895.873 1463.91 896.005 1452.18 C 896.135 1428.88 907.641 1422.86 921.16 1409.69 L 921.975 1408.55 z"/>
<path transform="translate(0,0)" fill="rgb(229,77,96)" d="M 923.025 1492.48 C 936.658 1497.35 942.702 1496.47 956.994 1495.08 C 953.681 1497.7 951.036 1499.66 948.081 1502.75 C 939.544 1503.71 930.965 1505.51 923.332 1509.63 C 923.123 1504.03 923.116 1498.11 923.025 1492.48 z"/>
<path transform="translate(0,0)" fill="rgb(248,123,144)" d="M 948.081 1502.75 C 953.019 1505.98 956.795 1505.25 961.911 1507.13 C 982.82 1514.82 989.676 1532.29 989.127 1553.04 C 985.987 1575.75 974.483 1588.19 953.007 1595.56 C 939.52 1596.01 936.824 1595.35 923.792 1591.21 C 917.088 1587.99 910.184 1581.55 906.117 1575.38 C 899.582 1565.34 897.341 1553.1 899.895 1541.39 C 903.06 1526.55 911.118 1517.55 923.332 1509.63 C 930.965 1505.51 939.544 1503.71 948.081 1502.75 z"/>
<path transform="translate(0,0)" fill="rgb(229,77,96)" d="M 921.139 1375.97 C 923.079 1380.16 922.354 1379.32 927.795 1381.4 C 934.138 1383.81 938.825 1384.6 944.829 1388.12 C 937.577 1394.7 929.463 1402.41 921.975 1408.55 L 921.16 1409.69 C 920.599 1400.8 921.1 1385.34 921.139 1375.97 z"/>
<path transform="translate(0,0)" fill="rgb(146,44,62)" d="M 552.865 1282.84 C 555.291 1290.09 552.566 1306.07 551.597 1314.1 C 549.685 1305.47 546.851 1297.07 544.18 1288.64 C 546.471 1286.44 550.049 1284.53 552.865 1282.84 z"/>
<path transform="translate(0,0)" fill="rgb(96,218,205)" d="M 585.086 1224.39 C 592.141 1213.9 594.862 1213.13 607.418 1213.09 L 788.131 1213.18 L 845.025 1213.14 C 855.324 1213.13 882.717 1211.09 885.53 1219.06 C 891.123 1234.91 889.019 1283.82 889.038 1300.59 L 889.144 1430.39 L 889.955 1653.73 L 890.24 1717.76 C 890.514 1770.57 895.453 1768.31 844.267 1768.33 L 784.335 1768.26 L 598.907 1768.61 C 591.678 1765.02 590.352 1763.39 586.053 1756.55 C 585.836 1722.25 585.814 1687.94 585.987 1653.63 L 585.608 1431.76 C 583.514 1365.15 585.039 1291.42 585.086 1224.39 z"/>
<path transform="translate(0,0)" fill="rgb(253,248,239)" d="M 585.086 1224.39 C 592.141 1213.9 594.862 1213.13 607.418 1213.09 L 788.131 1213.18 L 845.025 1213.14 C 855.324 1213.13 882.717 1211.09 885.53 1219.06 C 891.123 1234.91 889.019 1283.82 889.038 1300.59 L 889.144 1430.39 C 877.061 1431.12 867.097 1431.32 854.986 1431.27 C 855.244 1441.64 858.517 1467.04 844.497 1470.18 C 840.118 1471.16 832.882 1471.29 828.329 1471.3 L 687.481 1471.21 C 670.402 1471.09 652.822 1471.48 635.767 1470.78 C 629.438 1470.52 624.411 1462.67 622.491 1457.21 C 621.502 1451.31 621.904 1438 621.92 1431.48 C 609.817 1431.66 597.713 1431.75 585.608 1431.76 C 583.514 1365.15 585.039 1291.42 585.086 1224.39 z"/>
<path transform="translate(0,0)" fill="rgb(148,224,213)" d="M 585.086 1224.39 C 592.141 1213.9 594.862 1213.13 607.418 1213.09 L 788.131 1213.18 L 845.025 1213.14 C 855.324 1213.13 882.717 1211.09 885.53 1219.06 C 891.123 1234.91 889.019 1283.82 889.038 1300.59 L 889.144 1430.39 C 877.061 1431.12 867.097 1431.32 854.986 1431.27 L 855.037 1323.27 C 855.044 1308.89 855.895 1291.59 854.593 1277.51 C 852.79 1258.02 823.038 1261.92 810.225 1262.09 C 795.265 1262.3 780.302 1262.4 765.34 1262.39 L 681.753 1262.29 C 668.765 1262.3 651.462 1261.85 638.792 1262.53 C 636.898 1262.63 635.006 1262.76 633.117 1262.93 C 627.542 1266.84 626.652 1267.6 622.992 1273.28 C 621.097 1316.39 623.924 1364.2 622.787 1407.72 C 622.389 1422.95 623.791 1442.63 622.491 1457.21 C 621.502 1451.31 621.904 1438 621.92 1431.48 C 609.817 1431.66 597.713 1431.75 585.608 1431.76 C 583.514 1365.15 585.039 1291.42 585.086 1224.39 z"/>
<path transform="translate(0,0)" fill="rgb(253,248,239)" d="M 612.004 1229.84 C 620.355 1229.29 630.016 1229.92 638.558 1229.67 C 645.784 1229.45 655.886 1228.53 659.749 1235.38 C 659.776 1238.75 658.541 1239.71 656.466 1242.41 C 642.99 1242.29 626.731 1244.07 613.682 1241.86 C 610.343 1241.3 609.564 1239.58 608.305 1237.15 C 608.934 1232.54 608.722 1233.99 612.004 1229.84 z"/>
<path transform="translate(0,0)" fill="rgb(253,248,239)" d="M 673.45 1229.31 C 676.036 1228.35 678.943 1228.9 680.992 1230.75 C 683.041 1232.6 683.89 1235.43 683.195 1238.11 C 682.5 1240.78 680.375 1242.84 677.685 1243.45 C 673.888 1244.32 670.069 1242.09 668.951 1238.36 C 667.834 1234.63 669.801 1230.67 673.45 1229.31 z"/>
<path transform="translate(0,0)" fill="rgb(20,103,225)" d="M 738.989 1300.24 C 742.257 1300.42 742.938 1300.62 746.031 1301.34 C 759.151 1314.83 789.414 1365.56 792.784 1385.19 C 798.54 1418.73 776.701 1439.36 744.738 1445.08 C 733.601 1445.17 722.219 1442.96 712.484 1437.36 C 701.243 1430.97 693.056 1420.32 689.778 1407.81 C 683.395 1384.05 695.782 1361.71 707.57 1341.33 C 713.743 1330.65 725.712 1310.5 734.673 1301.38 C 736.384 1300.93 737.822 1300.55 738.989 1300.24 z"/>
<path transform="translate(0,0)" fill="rgb(204,203,203)" d="M 710.09 1371.32 C 725.404 1372.26 717.214 1387.18 719.633 1395.77 C 719.999 1397.07 727.704 1405.96 729.208 1408.08 C 728.896 1411.81 728.35 1411.38 725.791 1414.98 C 716.974 1417.86 710.212 1409.89 707.688 1402.25 C 704.276 1392.04 705.142 1380.88 710.09 1371.32 z"/>
<path transform="translate(0,0)" fill="rgb(20,103,225)" d="M 585.987 1653.63 L 889.955 1653.73 L 890.24 1717.76 C 890.514 1770.57 895.453 1768.31 844.267 1768.33 L 784.335 1768.26 L 598.907 1768.61 C 591.678 1765.02 590.352 1763.39 586.053 1756.55 C 585.836 1722.25 585.814 1687.94 585.987 1653.63 z"/>
<path transform="translate(0,0)" fill="rgb(253,248,239)" d="M 642.969 1682.45 C 655.821 1681.98 670.684 1681.11 683.167 1683.5 C 688.019 1685.96 687.957 1686.27 688.192 1691.74 C 688.457 1693.69 688.668 1695.65 688.824 1697.62 C 690.169 1714.8 691.368 1726.7 680.013 1740.03 C 668.149 1740.37 654.569 1740.02 642.574 1739.98 C 629.359 1719.31 627.996 1702.82 642.969 1682.45 z"/>
<path transform="translate(0,0)" fill="rgb(104,205,251)" d="M 683.167 1683.5 C 688.019 1685.96 687.957 1686.27 688.192 1691.74 C 678.688 1699.38 672.145 1714.68 656.758 1726.14 C 651.424 1721.56 641.347 1714.06 642.167 1706.16 C 648.105 1704.94 653.282 1710.8 657.409 1714.52 C 664.51 1705.46 680.481 1691.45 683.167 1683.5 z"/>
<path transform="translate(0,0)" fill="rgb(229,228,228)" d="M 718.747 1719.88 C 734.629 1719.93 847.553 1717.79 852.731 1722.06 C 854.714 1723.69 855.424 1725.51 855.256 1728.06 C 855.06 1731.04 852.969 1733.03 851.011 1735.01 L 766.572 1735.04 C 752.164 1735.1 737.509 1735.45 723.133 1734.94 C 712.481 1734.56 711.929 1726.63 718.747 1719.88 z"/>
<path transform="translate(0,0)" fill="rgb(253,248,239)" d="M 719.658 1688.06 C 739.028 1688.11 844.574 1685.81 853.355 1690.59 C 857.251 1695.83 855.503 1698.91 851.281 1703.08 L 766.501 1703.1 C 752.296 1703.13 737.759 1703.52 723.596 1702.97 C 713.195 1702.56 711.438 1694.9 719.658 1688.06 z"/>
<path transform="translate(0,0)" fill="rgb(20,103,225)" d="M 709.427 1501.99 L 736.96 1501.91 C 737.529 1540.07 736.94 1579.93 736.903 1618.27 L 709.339 1617.98 C 707.785 1584.21 709.135 1536.51 709.427 1501.99 z"/>
<path transform="translate(0,0)" fill="rgb(253,248,239)" d="M 746.776 1522.97 L 774.068 1523.23 C 773.403 1554.25 773.964 1586.96 774.04 1618.1 L 747.056 1618.03 C 746.476 1586.78 746.947 1554.4 746.776 1522.97 z"/>
<path transform="translate(0,0)" fill="rgb(253,248,239)" d="M 835.234 1520.58 L 849.168 1519.69 C 850.535 1551 849.847 1586.6 849.833 1618.08 L 835.5 1618.02 L 822.976 1617.93 C 822.864 1598.95 821.939 1576.88 822.56 1558.37 C 822.906 1548.03 825.83 1534.8 826.451 1522.06 C 828.157 1520.42 832.266 1520.77 835.234 1520.58 z"/>
<path transform="translate(0,0)" fill="rgb(20,103,225)" d="M 633.098 1530.8 L 660.918 1531.02 L 660.831 1618.14 C 651.732 1618.45 642.628 1618.57 633.524 1618.48 C 631.922 1593.48 633.032 1556.73 633.098 1530.8 z"/>
<path transform="translate(0,0)" fill="rgb(20,103,225)" d="M 671.898 1532.93 L 698.975 1533 C 699.07 1561.37 699.009 1589.75 698.795 1618.12 L 671.988 1618.11 C 671.8 1590.5 671.046 1560.34 671.898 1532.93 z"/>
<path transform="translate(0,0)" fill="rgb(253,248,239)" d="M 784.096 1569.95 L 811.703 1570.06 C 811.411 1585.5 811.624 1601.25 811.48 1616.75 C 808.949 1619.16 789.48 1618.05 784.618 1618 C 784.065 1602.21 784.186 1585.79 784.096 1569.95 z"/>
<path transform="translate(0,0)" fill="rgb(20,103,225)" d="M 702.733 1799.05 C 722.96 1798.35 744.018 1798.81 764.313 1798.69 C 769.228 1798.66 774.379 1800.11 778.27 1803.22 C 780.861 1809.01 779.204 1812.14 774.189 1815.65 C 762.393 1816.02 706.526 1819.27 699.703 1812.19 C 697.624 1810.04 697.735 1808.92 697.517 1806.1 C 698.985 1802.15 699.483 1801.98 702.733 1799.05 z"/>
<path transform="translate(0,0)" fill="rgb(248,123,144)" d="M 468.501 1306.55 C 469.918 1300.19 471.379 1293.84 472.883 1287.51 C 477.366 1268.93 484.835 1245.94 509.84 1253.56 C 527.098 1258.82 536.181 1273.61 544.18 1288.64 C 546.851 1297.07 549.685 1305.47 551.597 1314.1 C 554.85 1330.04 554.227 1374.96 553.173 1393.19 L 553.657 1526.69 C 553.672 1545.24 554.518 1573.44 553.271 1591.31 C 553.888 1649.27 551.782 1712.5 553.437 1769.54 C 545.106 1781.89 545.236 1815.47 547.964 1830.02 C 555.918 1872.45 608.733 1897.59 647.153 1904.17 C 627.323 1939.96 600.647 1977.17 579.785 2012.7 C 572.973 2024.3 564.548 2036.21 558.154 2048 L 162.332 2048 L 353.666 1806.92 C 360.268 1799.4 385.408 1767.08 389.972 1759.38 C 386.384 1717.24 388.303 1671.36 387.975 1628.59 C 387.762 1600.79 386.438 1562.05 390.391 1535.38 C 392.901 1518.44 407.802 1492.42 414.813 1475.03 L 421.663 1458.05 C 427.215 1449.16 446.655 1400.52 449.78 1390.34 C 456.393 1372.38 463.948 1327.13 468.501 1306.55 z"/>
<path transform="translate(0,0)" fill="rgb(229,77,96)" d="M 553.173 1393.19 L 553.657 1526.69 C 553.672 1545.24 554.518 1573.44 553.271 1591.31 C 552.473 1582.33 552.866 1565.29 552.832 1555.74 C 539.275 1537.4 530.141 1530.25 509.484 1520.77 C 528.771 1492.83 537.047 1460.91 544.608 1428.26 C 547.122 1417.4 547.726 1402.39 553.173 1393.19 z"/>
<path transform="translate(0,0)" fill="rgb(229,228,228)" d="M 0 1806.67 L 353.666 1806.92 L 162.332 2048 L 0 2048 L 0 1806.67 z"/>
<path transform="translate(0,0)" fill="rgb(253,248,239)" d="M 414.813 1475.03 C 411.007 1467.35 412.188 1460.09 421.663 1458.05 L 414.813 1475.03 z"/>
<path transform="translate(0,0)" fill="rgb(253,248,239)" d="M 256.284 1576.41 C 265.658 1575.33 274.204 1581.87 275.613 1591.2 C 277.022 1600.53 270.787 1609.3 261.511 1611.03 C 255.217 1612.21 248.783 1609.85 244.732 1604.9 C 240.68 1599.94 239.657 1593.16 242.064 1587.23 C 244.471 1581.3 249.924 1577.15 256.284 1576.41 z"/>
<path transform="translate(0,0)" fill="rgb(253,248,239)" d="M 75.53 1442.4 C 84.9958 1440.86 93.9318 1447.24 95.5676 1456.68 C 97.2034 1466.13 90.9296 1475.14 81.4995 1476.88 C 75.3073 1478.02 68.9791 1475.74 64.9292 1470.92 C 60.8792 1466.1 59.7321 1459.48 61.9255 1453.57 C 64.1188 1447.67 69.3144 1443.4 75.53 1442.4 z"/>
<path transform="translate(0,0)" fill="rgb(253,248,239)" d="M 74.2788 1535.34 C 80.431 1533.9 86.8809 1535.9 91.1422 1540.56 C 95.4034 1545.23 96.8104 1551.83 94.8209 1557.83 C 92.8313 1563.83 87.756 1568.28 81.5512 1569.47 C 72.2187 1571.27 63.1657 1565.27 61.1853 1555.97 C 59.205 1546.68 65.0253 1537.51 74.2788 1535.34 z"/>
<path transform="translate(0,0)" fill="rgb(253,248,239)" d="M 195.307 1442.55 C 204.524 1441.01 213.318 1447.01 215.244 1456.15 C 217.17 1465.3 211.543 1474.33 202.487 1476.64 C 196.282 1478.22 189.711 1476.27 185.37 1471.57 C 181.029 1466.86 179.617 1460.15 181.691 1454.1 C 183.765 1448.04 188.993 1443.61 195.307 1442.55 z"/>
<path transform="translate(0,0)" fill="rgb(253,248,239)" d="M 134.981 1664.56 C 144.306 1662.66 153.431 1668.59 155.482 1677.88 C 157.534 1687.17 151.753 1696.39 142.494 1698.59 C 136.371 1700.05 129.937 1698.09 125.664 1693.47 C 121.391 1688.85 119.941 1682.28 121.872 1676.29 C 123.802 1670.3 128.813 1665.81 134.981 1664.56 z"/>
<path transform="translate(0,0)" fill="rgb(253,248,239)" d="M 315.607 1442.47 C 321.775 1441.04 328.231 1443.07 332.467 1447.78 C 336.704 1452.48 338.053 1459.12 335.99 1465.1 C 333.928 1471.09 328.779 1475.48 322.544 1476.58 C 313.25 1478.22 304.344 1472.15 302.464 1462.9 C 300.583 1453.65 306.412 1444.59 315.607 1442.47 z"/>
<path transform="translate(0,0)" fill="rgb(253,248,239)" d="M 77.362 1619.49 C 86.7029 1619.01 94.7594 1625.99 95.6063 1635.3 C 96.4532 1644.62 89.7878 1652.94 80.5121 1654.14 C 74.1856 1654.96 67.9162 1652.26 64.1725 1647.09 C 60.4288 1641.93 59.8105 1635.13 62.5612 1629.37 C 65.312 1623.62 70.9909 1619.82 77.362 1619.49 z"/>
<path transform="translate(0,0)" fill="rgb(253,248,239)" d="M 195.95 1619.55 C 205.333 1618.24 214.047 1624.67 215.554 1634.02 C 217.061 1643.38 210.807 1652.22 201.484 1653.92 C 195.284 1655.04 188.958 1652.73 184.946 1647.87 C 180.934 1643.01 179.863 1636.36 182.146 1630.49 C 184.428 1624.61 189.708 1620.43 195.95 1619.55 z"/>
<path transform="translate(0,0)" fill="rgb(253,248,239)" d="M 254.853 1664.48 C 264.264 1662.6 273.422 1668.7 275.311 1678.11 C 277.199 1687.52 271.104 1696.68 261.694 1698.57 C 252.28 1700.46 243.114 1694.36 241.225 1684.95 C 239.335 1675.53 245.437 1666.37 254.853 1664.48 z"/>
<path transform="translate(0,0)" fill="rgb(253,248,239)" d="M 255.172 1488.45 C 264.557 1486.74 273.568 1492.91 275.358 1502.28 C 277.148 1511.65 271.049 1520.72 261.694 1522.59 C 252.226 1524.48 243.031 1518.29 241.219 1508.81 C 239.408 1499.32 245.673 1490.18 255.172 1488.45 z"/>
<path transform="translate(0,0)" fill="rgb(253,248,239)" d="M 317.536 1619.41 C 327.103 1618.25 335.787 1625.1 336.887 1634.67 C 337.988 1644.24 331.084 1652.88 321.503 1653.92 C 312.01 1654.95 303.466 1648.12 302.376 1638.64 C 301.285 1629.15 308.057 1620.56 317.536 1619.41 z"/>
<path transform="translate(0,0)" fill="rgb(253,248,239)" d="M 132.264 1577.46 C 141.258 1574.01 151.341 1578.54 154.735 1587.55 C 158.13 1596.57 153.538 1606.62 144.503 1609.96 C 135.544 1613.28 125.592 1608.73 122.226 1599.79 C 118.861 1590.85 123.345 1580.88 132.264 1577.46 z"/>
<path transform="translate(0,0)" fill="rgb(253,248,239)" d="M 314.785 1535.57 C 320.816 1533.92 327.267 1535.64 331.675 1540.08 C 336.083 1544.51 337.766 1550.97 336.082 1556.99 C 334.398 1563.02 329.606 1567.67 323.538 1569.17 C 314.309 1571.46 304.957 1565.9 302.56 1556.69 C 300.163 1547.49 305.613 1538.08 314.785 1535.57 z"/>
<path transform="translate(0,0)" fill="rgb(253,248,239)" d="M 193.626 1535.51 C 202.926 1532.97 212.516 1538.49 214.985 1547.81 C 217.453 1557.13 211.855 1566.68 202.516 1569.08 C 193.279 1571.45 183.86 1565.92 181.419 1556.71 C 178.977 1547.49 184.427 1538.03 193.626 1535.51 z"/>
<path transform="translate(0,0)" fill="rgb(253,248,239)" d="M 314.693 1712.28 C 320.741 1710.4 327.331 1711.99 331.859 1716.42 C 336.386 1720.85 338.123 1727.4 336.383 1733.49 C 334.643 1739.58 329.705 1744.22 323.522 1745.59 C 314.495 1747.58 305.502 1742.1 303.134 1733.17 C 300.766 1724.23 305.864 1715.02 314.693 1712.28 z"/>
<path transform="translate(0,0)" fill="rgb(253,248,239)" d="M 72.5726 1712.41 C 81.5963 1709.33 91.4101 1714.17 94.4433 1723.21 C 97.4764 1732.26 92.5697 1742.04 83.5084 1745.02 C 74.5262 1747.97 64.8465 1743.11 61.8398 1734.15 C 58.8332 1725.19 63.6276 1715.48 72.5726 1712.41 z"/>
<path transform="translate(0,0)" fill="rgb(253,248,239)" d="M 132.957 1489.53 C 138.823 1487.55 145.3 1488.88 149.911 1493.01 C 154.523 1497.14 156.557 1503.43 155.236 1509.48 C 153.914 1515.53 149.442 1520.4 143.528 1522.23 C 134.543 1525.01 124.992 1520.05 122.099 1511.1 C 119.206 1502.15 124.045 1492.54 132.957 1489.53 z"/>
<path transform="translate(0,0)" fill="rgb(253,248,239)" d="M 193.127 1712.42 C 199.051 1710.55 205.522 1712.05 210.026 1716.32 C 214.531 1720.6 216.36 1726.98 214.803 1733 C 213.245 1739.01 208.547 1743.7 202.533 1745.26 C 193.568 1747.57 184.394 1742.32 181.844 1733.42 C 179.295 1724.52 184.298 1715.21 193.127 1712.42 z"/>
<path transform="translate(0,0)" fill="rgb(20,103,225)" d="M 121.491 871.203 C 124.012 862.506 126.685 853.854 129.509 845.251 C 152.77 775.827 205.317 724.146 269.992 692.071 C 350.802 652.946 443.763 647.194 528.78 676.059 C 594.946 698.477 652.475 741.074 690.15 800.471 C 699.875 815.803 706.784 832.629 714.856 848.96 C 715.658 856.849 720.948 871.027 723.706 878.903 C 745.854 919.458 744.036 1041.69 729.768 1087.47 C 727.578 1094.49 722.818 1108.31 721.45 1115 C 717.986 1124.57 715.442 1129.95 710.99 1138.71 C 708.746 1143.12 698.41 1161.42 697.733 1164.63 C 699.831 1165.34 700.188 1165.51 702.357 1165.92 C 670.379 1167.21 637.274 1165.77 605.082 1166.23 C 555.351 1166.94 550.529 1198.44 553.064 1239.4 C 553.322 1243.34 554.161 1280.37 552.865 1282.84 C 550.049 1284.53 546.471 1286.44 544.18 1288.64 C 536.181 1273.61 527.098 1258.82 509.84 1253.56 C 484.835 1245.94 477.366 1268.93 472.883 1287.51 C 471.379 1293.84 469.918 1300.19 468.501 1306.55 C 463.948 1327.13 456.393 1372.38 449.78 1390.34 L 0 1390.37 L 0 1074.99 L 0 992.555 L 0 910.681 L 35.0908 910.9 C 36.5393 897.883 38.3033 884.903 40.3813 871.972 C 53.8758 871.79 67.3716 871.714 80.8674 871.744 C 93.154 870.896 108.912 871.235 121.491 871.203 z"/>
<path transform="translate(0,0)" fill="rgb(7,85,198)" d="M 40.3813 871.972 C 53.8758 871.79 67.3716 871.714 80.8674 871.744 C 94.3614 872.159 108.241 871.92 121.776 871.844 C 120.619 875.687 118.227 884.469 116.608 887.7 C 116.735 888.146 116.861 888.591 116.987 889.037 L 117.471 890.891 C 119.323 897.803 117.873 910.573 118.065 918.295 C 121.798 1067.86 253.114 1168.3 396.945 1181.09 C 483.105 1188.32 568.657 1161.43 635.201 1106.23 C 694.091 1056.62 730.808 984.399 725.235 906.908 C 724.641 898.653 722.793 886.879 723.706 878.903 C 745.854 919.458 744.036 1041.69 729.768 1087.47 C 727.578 1094.49 722.818 1108.31 721.45 1115 C 717.986 1124.57 715.442 1129.95 710.99 1138.71 C 708.746 1143.12 698.41 1161.42 697.733 1164.63 C 699.831 1165.34 700.188 1165.51 702.357 1165.92 C 670.379 1167.21 637.274 1165.77 605.082 1166.23 C 555.351 1166.94 550.529 1198.44 553.064 1239.4 C 553.322 1243.34 554.161 1280.37 552.865 1282.84 C 550.049 1284.53 546.471 1286.44 544.18 1288.64 C 536.181 1273.61 527.098 1258.82 509.84 1253.56 C 484.835 1245.94 477.366 1268.93 472.883 1287.51 C 471.379 1293.84 469.918 1300.19 468.501 1306.55 C 463.948 1327.13 456.393 1372.38 449.78 1390.34 L 0 1390.37 L 0 1074.99 L 0 992.555 L 0 910.681 L 35.0908 910.9 C 36.5393 897.883 38.3033 884.903 40.3813 871.972 z"/>
<path transform="translate(0,0)" fill="rgb(229,228,228)" d="M 0 1074.99 L 36.4131 1074.91 C 37.93 1087.77 39.565 1100.6 41.3178 1113.43 L 63.9721 1113.27 C 84.0751 1114.24 104.448 1113.38 124.661 1113.96 C 157.93 1193.44 222.507 1253.26 301.706 1285.58 C 349.009 1304.89 417.954 1315.41 468.501 1306.55 C 463.948 1327.13 456.393 1372.38 449.78 1390.34 L 0 1390.37 L 0 1074.99 z"/>
<path transform="translate(0,0)" fill="rgb(0,51,118)" d="M 40.3813 871.972 C 53.8758 871.79 67.3716 871.714 80.8674 871.744 C 94.3614 872.159 108.241 871.92 121.776 871.844 C 120.619 875.687 118.227 884.469 116.608 887.7 C 94.6119 956.308 99.0147 1046.11 124.365 1113.44 C 111.346 1112.95 76.2484 1112.21 63.9721 1113.27 L 41.3178 1113.43 C 39.565 1100.6 37.93 1087.77 36.4131 1074.91 L 0 1074.99 L 0 992.555 L 0 910.681 L 35.0908 910.9 C 36.5393 897.883 38.3033 884.903 40.3813 871.972 z"/>
<path transform="translate(0,0)" fill="rgb(7,85,198)" d="M 0 992.555 C 10.6317 992.772 20.2398 992.876 30.9048 992.575 C 31.1517 1021.43 32.3599 1046.53 36.4131 1074.91 L 0 1074.99 L 0 992.555 z"/>
<path transform="translate(0,0)" fill="rgb(20,103,225)" d="M 0 910.681 L 35.0908 910.9 C 31.4652 937.491 30.9781 965.788 30.9048 992.575 C 20.2398 992.876 10.6317 992.772 0 992.555 L 0 910.681 z"/>
<path transform="translate(0,0)" fill="rgb(148,224,213)" d="M 177.613 948.836 C 163.619 865.529 193.344 799.748 260.05 748.244 C 364.848 667.328 548.496 681.636 629.283 790.842 C 635.476 797.929 642.125 806.934 645.33 815.857 C 668.46 856.64 675.204 903.007 667.615 949.014 C 663.898 968.267 653.5 994.177 643.15 1010.83 C 532.381 1189.09 232.171 1159.01 177.613 948.836 z"/>
<path transform="translate(0,0)" fill="rgb(0,51,118)" d="M 177.613 948.836 L 667.615 949.014 C 663.898 968.267 653.5 994.177 643.15 1010.83 C 532.381 1189.09 232.171 1159.01 177.613 948.836 z"/>
<path transform="translate(0,0)" fill="rgb(20,103,225)" d="M 407.451 1010.2 L 507.562 1010.06 C 519.797 1010.05 553.094 1009.18 563.596 1011.62 C 568.56 1015.2 569.361 1024.5 568.742 1030.12 C 567.767 1038.96 572.291 1052.65 562.968 1057.03 L 458.92 1056.95 C 442.124 1056.98 424.178 1057.59 407.531 1056 C 396.912 1054.99 398.813 1021.77 400.782 1014.97 C 403.265 1011.83 403.645 1011.84 407.451 1010.2 z"/>
<path transform="translate(0,0)" fill="rgb(253,248,239)" d="M 296.718 979.481 C 305.267 983.963 323.155 1015.24 325.108 1026.36 C 328.684 1046.75 315.414 1056.88 297.458 1060.06 C 290.502 1059.42 282.151 1056.7 276.935 1051.97 C 255.146 1032.17 281.963 994.736 296.718 979.481 z"/>
<path transform="translate(0,0)" fill="rgb(253,248,239)" d="M 248.565 902.471 L 248.46 900.799 C 248.181 895.939 248.43 890.185 248.577 885.302 C 249.374 858.869 247.993 832.13 249.175 805.761 C 249.526 797.934 253.928 791.838 261.686 791.25 C 273.504 790.356 287.061 790.623 298.923 790.607 L 370.399 790.716 L 534.477 790.813 C 565.706 790.847 598.193 791.488 629.283 790.842 C 635.476 797.929 642.125 806.934 645.33 815.857 C 643.338 832.673 648.761 911.746 641.534 913.06 C 612.596 918.321 524.798 916.031 496.618 916.024 L 262.344 915.816 C 254.648 911.315 252.959 910.146 248.565 902.471 z"/>
<path transform="translate(0,0)" fill="rgb(0,51,118)" d="M 511.662 812.07 C 516.276 811.814 528.117 810.006 532.057 814.686 C 535.447 818.711 534.664 823.019 534.17 828.525 C 533.27 838.565 532.172 849.853 534.071 859.966 C 534.01 859.641 540.578 862.177 542.529 864.272 C 546.031 874.8 540.924 875.475 535.348 876.696 C 532.193 877.387 532.874 889.182 532.929 892.823 C 527.837 893.061 518.411 894.635 515.127 890.828 L 514.992 875.747 C 503.142 875.49 491.284 875.824 479.255 875.526 L 479.043 862.169 C 484.584 854.589 490.319 846.732 495.288 838.777 C 500.854 829.866 505.341 820.493 511.662 812.07 z"/>
<path transform="translate(0,0)" fill="rgb(253,248,239)" d="M 514.425 830.694 C 515.585 835.845 515.06 854.792 515.003 860.982 L 499.327 860.877 C 498.969 857.316 511.538 837.661 514.425 830.694 z"/>
<path transform="translate(0,0)" fill="rgb(0,51,118)" d="M 367.671 810.168 C 383.884 808.597 401.884 812.159 402.316 831.797 C 402.691 848.824 382.446 865.893 371.509 877.264 C 377.876 877.303 398.33 876.137 401.025 879.353 C 416.991 898.409 371.443 893.069 366.75 893.036 C 359.278 893.193 350.133 895.018 347.001 886.588 C 347.199 869.319 384.032 852.215 383.729 832.44 C 383.7 830.562 381.928 826.921 380.152 826.056 C 370.217 821.22 366.521 828.334 361.741 835.2 C 335.155 830.87 351.652 814.884 367.671 810.168 z"/>
<path transform="translate(0,0)" fill="rgb(0,51,118)" d="M 436.006 810.113 C 438.474 809.925 440.945 809.797 443.418 809.729 C 468.428 809.219 478.686 831.15 458.67 849.882 C 493.117 872.639 451.777 908.226 423.546 889.543 C 416.834 885.1 415.128 879.933 413.878 872.384 C 419.574 870.865 424.638 870.935 430.488 870.74 C 440.93 887.843 459.168 874.681 449.829 861.964 C 446.85 857.906 439.165 858.094 434.198 857.918 L 434.325 844.237 C 437.598 843.968 442.52 843.824 445.416 842.327 C 453.577 838.107 453.18 825.257 442.608 824.731 C 436.756 824.439 433.135 828.554 429.232 832.207 C 423.507 830.646 419.557 830.743 417.075 824.803 C 416.847 815.683 428.98 811.955 436.006 810.113 z"/>
<path transform="translate(0,0)" fill="rgb(0,51,118)" d="M 312.537 811.207 C 318.84 810.818 322.764 809.881 327.842 813.456 C 331.234 818.044 329.71 883.286 328.838 892.944 C 323.622 893.049 317.972 892.925 312.72 892.903 C 310.181 885.739 311.133 838.971 311.011 828.071 L 297.722 831.814 C 297.118 827.585 297.037 821.935 296.845 817.561 C 301.742 815.387 307.5 813.223 312.537 811.207 z"/>
<path transform="translate(0,0)" fill="rgb(0,51,118)" d="M 580.869 855.003 L 584.279 856.362 C 589.469 862.133 592.49 876.302 594.643 884.257 C 615.383 811.892 621.864 888.01 615.199 897.528 C 611.594 898.554 613.315 898.62 609.851 897.436 C 606.045 892.543 607.735 880.378 607.932 873.145 L 607.504 872.422 C 605.671 873.725 601.666 890.784 598.025 896.885 C 588.368 900.991 583.59 876.702 581.167 869.711 C 581.204 876.186 582.444 893.132 579.083 897.118 C 575.393 897.968 577.002 898.262 574.022 896.847 C 571.974 892.633 573.139 863.892 574.018 858.121 C 576.325 855.65 577.031 856.134 580.869 855.003 z"/>
<path transform="translate(0,0)" fill="rgb(4,58,152)" d="M 626.953 846.984 C 647.322 846.375 636.906 851.105 642.411 864.591 C 646.077 873.574 629.243 878.721 622.837 868.16 L 625.992 867.207 C 630.496 868.724 632.216 869.496 636.857 868.126 L 637.414 866.552 L 636.313 864.692 C 633.567 863.728 632.978 863.52 630.456 862.108 L 630.228 860.248 C 632.073 858.637 633.89 856.994 635.679 855.321 L 635.319 853.43 C 630.871 850.979 628.918 854.638 624.71 852.363 C 624.683 849.718 625.424 849.303 626.953 846.984 z"/>
<path transform="translate(0,0)" fill="rgb(0,51,118)" d="M 714.856 848.96 C 720.041 857.024 722.124 863.955 724.945 873.05 C 750.799 872.883 776.654 872.872 802.508 873.016 C 804.936 885.597 807.027 898.241 808.779 910.934 C 811.469 938.54 813.885 965.223 813.743 993.062 C 812.675 1024.91 810.996 1045.47 807.344 1077.08 C 806.132 1089.94 803.348 1102.34 801.589 1115 L 721.45 1115 C 722.818 1108.31 727.578 1094.49 729.768 1087.47 C 744.036 1041.69 745.854 919.458 723.706 878.903 C 720.948 871.027 715.658 856.849 714.856 848.96 z"/>
<path transform="translate(0,0)" fill="rgb(226,100,190)" d="M 1102.05 895.045 C 1103.52 893.827 1107.53 891.273 1109.18 891.239 C 1126.66 890.882 1210.32 886.715 1220.95 893.035 C 1229.14 902.617 1239.11 912.929 1248.02 921.861 C 1253.92 929.181 1260.14 936.236 1266.67 943.005 C 1270.22 946.841 1286.23 965.575 1288.85 967.249 C 1294.03 972.612 1301.15 978.17 1301.96 985.107 C 1298.66 992.741 1297.8 994.17 1290.4 997.496 C 1286.21 996.69 1275.17 997.283 1269.75 997.132 C 1243.08 996.385 1213.86 999.243 1187.59 996.022 C 1185.6 995.778 1179.87 992.175 1177.99 991.004 L 1175.15 985.132 C 1168.85 981.069 1117.1 921.681 1108.53 911.948 C 1105.54 906.868 1103.78 900.668 1102.05 895.045 z"/>
<path transform="translate(0,0)" fill="rgb(4,58,152)" d="M 1175.15 985.132 C 1187.35 984.523 1205.12 985.062 1217.68 985.059 L 1301.96 985.107 C 1298.66 992.741 1297.8 994.17 1290.4 997.496 C 1286.21 996.69 1275.17 997.283 1269.75 997.132 C 1243.08 996.385 1213.86 999.243 1187.59 996.022 C 1185.6 995.778 1179.87 992.175 1177.99 991.004 L 1175.15 985.132 z"/>
<path transform="translate(0,0)" fill="rgb(7,85,198)" d="M 813.743 993.062 L 938.781 992.978 C 938.208 1014.55 936.382 1051.7 920.203 1068.32 C 908.605 1080.24 887.683 1076.36 872.746 1076.82 C 851.119 1077 829.15 1076.4 807.344 1077.08 C 810.996 1045.47 812.675 1024.91 813.743 993.062 z"/>
<path transform="translate(0,0)" fill="rgb(20,103,225)" d="M 808.779 910.934 L 866.743 910.747 C 878.173 910.649 894.103 909.697 904.884 911.468 C 936.506 916.665 937.677 968.992 938.781 992.978 L 813.743 993.062 C 813.885 965.223 811.469 938.54 808.779 910.934 z"/>
<path transform="translate(0,0)" fill="rgb(248,123,144)" d="M 921.912 1297.16 C 932.612 1288.77 942.616 1283.38 957.011 1285.44 C 967.887 1287.1 977.656 1293.01 984.165 1301.88 C 992.977 1313.78 994.511 1330.17 989.835 1344.02 C 982.5 1357.84 957.986 1379.43 944.829 1388.12 C 938.825 1384.6 934.138 1383.81 927.795 1381.4 C 922.354 1379.32 923.079 1380.16 921.139 1375.97 L 920.894 1328.51 C 920.866 1320.5 920.48 1304.57 921.912 1297.16 z"/>
<path transform="translate(0,0)" fill="rgb(4,58,152)" d="M 1108.53 911.948 C 1100.93 920.319 1035.73 988.168 1030.24 990.128 C 1028.66 990.691 1028.38 990.203 1026.98 989.596 C 1024.46 985.578 1022.37 979.999 1025.98 975.986 C 1050.67 948.507 1077.44 922.602 1102.05 895.045 C 1103.78 900.668 1105.54 906.868 1108.53 911.948 z"/>
<path transform="translate(0,0)" fill="rgb(20,103,225)" d="M 659.759 597.913 C 673.976 599.268 687.952 602.487 701.329 607.489 C 743.015 622.732 778.327 653.341 797.328 693.918 C 799.856 699.318 805.62 710.845 803.862 715.541 L 799.743 717.387 L 786.389 721.632 C 781.338 713.983 775.727 701.335 770.556 692.623 C 753.671 664.05 727.577 642.063 696.554 630.269 C 689.374 627.464 682.331 625.426 674.914 623.45 C 668.897 621.847 662.88 622.339 657.745 619.454 C 654.859 614.146 658.322 604.144 659.759 597.913 z"/>
<path transform="translate(0,0)" fill="rgb(20,103,225)" d="M 651.854 648.113 C 685.198 651.819 714.504 666.086 736.048 691.982 C 744.231 701.819 758.397 721.903 759.349 734.483 C 757.876 737.027 756.098 737.022 752.709 738.5 L 742.667 742.666 C 720.875 695.665 699.925 676.698 647.902 666.245 C 649.021 660.332 650.534 654.03 651.854 648.113 z"/>
<path transform="translate(0,0)" fill="rgb(20,103,225)" d="M 643.456 696.773 C 644.441 696.833 645.425 696.902 646.409 696.982 C 667.414 698.724 686.081 708.102 699.42 724.417 C 706.777 733.414 715.111 744.693 714.137 756.616 C 711.807 760.331 711.804 759.394 706.961 761.584 L 696.41 765.056 C 682.014 733.054 679.043 722.499 640.196 716.536 C 640.928 709.263 641.994 703.96 643.456 696.773 z"/>
<path transform="translate(0,0)" fill="rgb(4,58,152)" d="M 1101.83 1016.5 C 1108.37 1016.32 1122.11 1015.22 1127.3 1017.78 C 1132.2 1024.6 1132.47 1049.7 1128.06 1056.4 C 1124.73 1057.97 1121 1057.64 1117.25 1057.68 C 1108.73 1057.54 1094.49 1059.25 1087.39 1056.27 C 1085.14 1047.98 1085.06 1027.16 1087.77 1018.82 C 1088.63 1016.16 1099.14 1016.52 1101.83 1016.5 z"/>
<path transform="translate(0,0)" fill="rgb(22,112,233)" d="M 1084.96 689.894 C 1101.12 689.955 1105.1 705.108 1092.37 714.439 C 1076.66 715.685 1072.42 699.433 1084.96 689.894 z"/>
<path transform="translate(0,0)" fill="rgb(4,151,157)" d="M 1035.26 799.109 C 1053.19 798.126 1057.02 811.077 1038.89 819.603 C 1024.98 823.926 1018.13 807.662 1035.26 799.109 z"/>
<path transform="translate(0,0)" fill="rgb(15,139,196)" d="M 1082.79 732.838 C 1100.14 731.809 1103.13 746.437 1090.43 756.843 C 1073.64 758.367 1072.56 743.235 1082.79 732.838 z"/>
<path transform="translate(0,0)" fill="rgb(15,139,196)" d="M 1067.94 771.897 C 1086.75 771.729 1085.55 785.929 1072.02 795.315 C 1068.38 795.76 1063.61 795.306 1061.51 792.161 C 1055.7 783.486 1062.56 776.465 1067.94 771.897 z"/>
<path transform="translate(0,0)" fill="rgb(4,151,157)" d="M 885.461 807.514 C 891.427 806.094 897.424 809.744 898.904 815.695 C 900.383 821.647 896.794 827.68 890.858 829.219 C 886.964 830.229 882.829 829.07 880.027 826.184 C 877.225 823.298 876.189 819.13 877.313 815.268 C 878.437 811.406 881.548 808.445 885.461 807.514 z"/>
<path transform="translate(0,0)" fill="rgb(15,139,196)" d="M 922.401 807.506 C 928.246 806.044 934.195 809.489 935.838 815.285 C 937.481 821.082 934.224 827.136 928.482 828.959 C 924.604 830.191 920.364 829.213 917.417 826.409 C 914.469 823.604 913.283 819.417 914.32 815.483 C 915.357 811.549 918.454 808.492 922.401 807.506 z"/>
<path transform="translate(0,0)" fill="rgb(15,139,196)" d="M 959.088 807.506 C 964.798 806.008 970.67 809.298 972.372 814.951 C 974.074 820.603 970.997 826.589 965.409 828.493 C 961.612 829.787 957.411 828.904 954.455 826.191 C 951.5 823.478 950.262 819.368 951.228 815.474 C 952.193 811.58 955.208 808.524 959.088 807.506 z"/>
<path transform="translate(0,0)" fill="rgb(15,139,196)" d="M 994.862 807.485 C 998.548 806.015 1002.74 806.655 1005.82 809.158 C 1008.9 811.661 1010.38 815.635 1009.7 819.544 C 1009.01 823.453 1006.27 826.685 1002.52 827.991 C 996.898 829.949 990.743 827.058 988.661 821.482 C 986.579 815.907 989.333 809.689 994.862 807.485 z"/>
<path transform="translate(0,0)" fill="rgb(22,112,233)" d="M 847.426 808.595 C 852.758 806.589 858.724 809.129 860.974 814.362 C 863.223 819.595 860.96 825.672 855.836 828.16 C 852.305 829.874 848.117 829.509 844.936 827.21 C 841.755 824.91 840.095 821.048 840.616 817.158 C 841.136 813.267 843.753 809.978 847.426 808.595 z"/>
<path transform="translate(0,0)" fill="rgb(229,228,228)" d="M 1032.86 992.661 L 1034.26 992.295 C 1035.92 995.109 1034.57 1096.42 1034.49 1108.6 L 1033.56 1107.89 C 1033.01 1076.06 1033.73 1044.2 1032.93 1012.36 C 1032.82 1007.67 1031.95 996.557 1032.86 992.661 z"/>
</svg>