<?xml version="1.0" encoding="utf-8"?>
<svg version="1.1" xmlns="http://www.w3.org/2000/svg" width="1022" height="997" xmlns:bx="https://boxy-svg.com">
  <defs>
    <style bx:fonts="Google Sans Flex">@import url(https://fonts.googleapis.com/css2?family=Google+Sans+Flex%3Aital%2Cwght%400%2C1..1000&amp;display=swap);</style>
    <style bx:fonts="Playfair Display">@import url(https://fonts.googleapis.com/css2?family=Playfair+Display%3Aital%2Cwght%400%2C400..900%3B1%2C400..900&amp;display=swap);</style>
  </defs>
  <path d="M0 0 C1.56624115 -0.00309677 1.56624115 -0.00309677 3.16412354 -0.0062561 C16.8860876 -0.00141364 30.31744615 0.56731839 43.875 2.75 C44.53806152 2.85659943 45.20112305 2.96319885 45.88427734 3.07302856 C53.44383002 4.32680977 60.71800373 6.06766481 68 8.4375 C69.54300781 8.89382813 69.54300781 8.89382813 71.1171875 9.359375 C74.42268751 10.3519614 77.71211204 11.38795725 81 12.4375 C81.71414063 12.6638916 82.42828125 12.8902832 83.1640625 13.12353516 C107.23147454 20.84856254 129.55481436 32.28741868 150.25 46.75 C151.30550049 47.48754517 151.30550049 47.48754517 152.38232422 48.23999023 C156.29077086 51.03424925 159.70855909 53.93555996 163 57.4375 C159.05326479 56.17821207 155.30405017 54.74588206 151.54296875 53.01171875 C140.19209093 47.84962488 129.07846458 42.9740736 116.96630859 39.93164062 C114.92570942 39.4188305 112.89486675 38.87547542 110.86328125 38.328125 C102.64460827 36.14910804 94.44210311 34.49394195 86 33.4375 C85.00637451 33.30214844 85.00637451 33.30214844 83.99267578 33.1640625 C39.45117469 27.16165671 -5.63354056 34.83982182 -46 54.4375 C-46.70576172 54.78006836 -47.41152344 55.12263672 -48.13867188 55.47558594 C-69.79697854 66.14563325 -89.16278703 80.41390248 -106.57177734 97.07226562 C-107.84762576 98.29184585 -109.13589562 99.4984009 -110.42578125 100.703125 C-117.02438603 107.03215978 -122.52419379 114.14295787 -128 121.4375 C-128.64437012 122.29069824 -128.64437012 122.29069824 -129.30175781 123.16113281 C-145.8217444 145.17506413 -158.43479297 169.9592754 -166 196.4375 C-194.38 196.4375 -222.76 196.4375 -252 196.4375 C-250.63337436 189.60437178 -249.19477026 183.42214909 -246.875 176.9375 C-246.57005615 176.07801758 -246.2651123 175.21853516 -245.95092773 174.33300781 C-242.75191207 165.48967261 -239.0073676 156.94017386 -235 148.4375 C-234.68981934 147.76799316 -234.37963867 147.09848633 -234.06005859 146.40869141 C-226.56553259 130.31388966 -216.99454722 115.36254091 -206 101.4375 C-205.36964844 100.61507812 -204.73929687 99.79265625 -204.08984375 98.9453125 C-192.18194061 83.6386444 -178.28455007 69.36071748 -163 57.4375 C-162.01644531 56.64859375 -161.03289062 55.8596875 -160.01953125 55.046875 C-151.98599118 48.66195267 -143.52958155 43.04670201 -134.84033203 37.59619141 C-133.36234051 36.6656332 -131.89598149 35.7166112 -130.43359375 34.76171875 C-106.50757852 19.56720103 -78.64374213 10.62112938 -51.08984375 4.88916016 C-49.74377511 4.59824579 -48.40187711 4.28691199 -47.06640625 3.95068359 C-31.65180935 0.15250917 -15.78191633 0.00078071 0 0 Z " fill="#173C6D" transform="translate(504,264.5625)"/>
  <path d="M 0 0 C 28.71 0 57.42 0 87 0 C 89.64 5.28 92.28 10.56 95 16 C 106.09 37.269 120.558 55.625 137 73 C 137.638 73.681 138.276 74.361 138.934 75.063 C 154.047 90.719 173.048 102.583 192 113 C 193.043 113.576 194.086 114.152 195.16 114.746 C 217.73 126.621 241.981 132.937 267 137 C 268.094 137.182 268.094 137.182 269.209 137.368 C 289.531 140.645 310.668 139.744 331 137 C 332.1 136.856 333.199 136.711 334.332 136.563 C 357.689 133.06 380.346 124.929 401.455 114.54 C 406.685 112 406.685 112 410 112 C 373.626 141.163 331.542 159.707 285.641 167.542 C 283.865 167.85 282.094 168.186 280.328 168.548 C 269.949 170.484 241.763 171.038 241.763 171.038 C 241.763 171.038 215.777 169.805 204 168 C 202.955 167.844 201.91 167.689 200.833 167.528 C 163.928 161.616 127.447 146.671 97 125 C 95.623 124.033 95.623 124.033 94.219 123.047 C 74.542 109.008 55.793 92.188 41 73 C 40.548 72.424 40.096 71.849 39.63 71.256 C 29.085 57.805 20.305 43.562 12.25 28.5 C 11.615 27.329 11.615 27.329 10.967 26.134 C 6.511 17.616 3.553 9.137 0 0 Z" fill="#173C6D" transform="translate(260,617)"/>
  <path d="M -23.884 -16.891 C -11.922 -9.578 26.7 25.736 39.152 44.773 C 40.209 46.388 59.172 78.028 61.152 92.773 C 38.382 92.773 15.612 92.773 -7.848 92.773 C -10.488 86.833 -13.128 80.893 -15.848 74.773 C -28.628 50.673 -45.182 29.549 -66.848 12.773 C -67.851 11.992 -68.853 11.211 -69.887 10.406 C -91.676 -6.083 -116.354 -16.31 -142.848 -22.227 C -143.634 -22.407 -144.419 -22.588 -145.229 -22.774 C -169.369 -28.087 -198.02 -27.546 -221.848 -21.227 C -222.695 -21.007 -223.543 -20.787 -224.416 -20.561 C -239.268 -16.625 -253.93 -11.663 -266.848 -3.227 C -267.508 -3.557 -268.168 -3.887 -268.848 -4.227 C -199.942 -60.349 -130.1 -81.916 -23.884 -16.891 Z" fill="#504D4D" transform="translate(692.84765625,368.2265625)"/>
  <path d="M 0 0 C 1.562 0.015 3.125 0.026 4.687 0.034 C 8.79 0.065 12.89 0.143 16.992 0.232 C 21.181 0.314 25.371 0.35 29.561 0.391 C 37.774 0.476 45.987 0.613 54.199 0.781 C 52.603 5.65 50.719 9.843 48.199 14.281 C 47.805 14.978 47.41 15.674 47.004 16.391 C 35.798 35.802 20.652 54.655 3.199 68.781 C 2.55 69.342 1.9 69.903 1.23 70.48 C -17.942 86.581 -39.516 97.99 -62.801 106.781 C -64.072 107.283 -64.072 107.283 -65.37 107.794 C -72.669 110.595 -80.027 112.333 -87.676 113.906 C -88.853 114.158 -90.03 114.409 -91.242 114.668 C -104.635 117.482 -117.559 119.223 -131.238 119.219 C -132.371 119.22 -132.371 119.22 -133.526 119.222 C -177.284 119.134 -230.847 104.74 -262.766 72.934 C -263.437 72.223 -264.109 71.513 -264.801 70.781 C -260.952 72.232 -257.424 74.028 -253.801 75.969 C -230.593 87.901 -203.952 93.222 -178.051 93.156 C -176.836 93.155 -176.836 93.155 -175.596 93.155 C -125.317 93 -79.864 73.098 -43.988 38.219 C -36.216 30.217 -29.589 21.327 -23.16 12.238 C -22.781 11.719 -15.325 0.4 -15.325 0.4 C -15.325 0.4 -7.998 -0.224 0 0 Z" fill="#504D4D" transform="translate(688.80078125,616.21875)"/>
  <path d="M0 0 C0.66 0.33 1.32 0.66 2 1 C1.34 1.66 0.68 2.32 0 3 C0.33 3.66 0.66 4.32 1 5 C-1.26727333 6.17407021 -3.53834624 7.33939739 -5.8125 8.5 C-6.45509766 8.83386719 -7.09769531 9.16773438 -7.75976562 9.51171875 C-10.69547699 11.00239084 -12.66126517 12 -16 12 C-13.89674758 10.37380483 -11.79244271 8.74900468 -9.6875 7.125 C-9.09259766 6.66480469 -8.49769531 6.20460938 -7.88476562 5.73046875 C-5.29971995 3.73752851 -2.71700932 1.81133955 0 0 Z " transform="translate(440,352)" style="fill: rgb(80, 77, 77);"/>
  <text style="fill: rgb(80, 77, 77); font-family: &quot;Google Sans Flex&quot;; font-size: 27px; letter-spacing: 5px; white-space: pre;" x="369.7" y="626.686">TECH SOLUTIONS</text>
  <text style="fill: rgb(31, 67, 115); font-family: &quot;Playfair Display&quot;; font-size: 28px; white-space: pre;" transform="matrix(4.233636, 0, -0.029176, 3.817687, -1136.925571, -1352.502848)" x="345.06" y="504.787">FIXLAT</text>
</svg>